# Blender 4.2.1 LTS
# www.blender.org
mtllib corner_yellowOrangeBlue.mtl
o Cube
v 0.440000 0.440000 -0.500000 0.0 0.0 0.0
v 0.440000 0.500000 -0.440000 0.0 0.0 0.0
v 0.500000 0.440000 -0.440000 0.0 0.0 0.0
v 0.440000 -0.500000 -0.440000 0.0 0.0 0.0
v 0.440000 -0.440000 -0.500000 0.0 0.0 0.0
v 0.500000 -0.440000 -0.440000 0.0 0.0 0.0
v 0.500000 0.440000 0.440000 0.0 0.0 0.0
v 0.440000 0.500000 0.440000 0.0 0.0 0.0
v 0.440000 0.440000 0.500000 0.0 0.0 0.0
v 0.500000 -0.440000 0.440000 0.0 0.0 0.0
v 0.440000 -0.440000 0.500000 0.0 0.0 0.0
v 0.440000 -0.500000 0.440000 0.0 0.0 0.0
v -0.440000 0.440000 -0.500000 0.0 0.0 0.0
v -0.500000 0.440000 -0.440000 0.0 0.0 0.0
v -0.440000 0.500000 -0.440000 0.0 0.0 0.0
v -0.500000 -0.440000 -0.440000 0.0 0.0 0.0
v -0.440000 -0.440000 -0.500000 0.0 0.0 0.0
v -0.440000 -0.500000 -0.440000 0.0 0.0 0.0
v -0.500000 0.440000 0.440000 0.0 0.0 0.0
v -0.440000 0.440000 0.500000 0.0 0.0 0.0
v -0.440000 0.500000 0.440000 0.0 0.0 0.0
v -0.440000 -0.500000 0.440000 0.0 0.0 0.0
v -0.440000 -0.440000 0.500000 0.0 0.0 0.0
v -0.500000 -0.440000 0.440000 0.0 0.0 0.0
vn -0.0000 -1.0000 -0.0000
vn -1.0000 -0.0000 -0.0000
vn -0.0000 -0.0000 1.0000
vn -0.0000 1.0000 -0.0000
vn 1.0000 -0.0000 -0.0000
vn 0.5774 0.5774 -0.5774
vn 0.5774 -0.5774 -0.5774
vn 0.5774 0.5774 0.5774
vn 0.5774 -0.5774 0.5774
vn -0.5774 0.5774 -0.5774
vn -0.5774 -0.5774 -0.5774
vn -0.5774 0.5774 0.5774
vn -0.5774 -0.5774 0.5774
vn -0.7071 -0.7071 -0.0000
vn -0.0000 -0.7071 -0.7071
vn 0.7071 -0.0000 -0.7071
vn -0.7071 -0.0000 0.7071
vn 0.7071 -0.0000 0.7071
vn -0.7071 -0.0000 -0.7071
vn -0.0000 0.7071 0.7071
vn 0.7071 0.7071 -0.0000
vn -0.0000 -0.7071 0.7071
vn -0.7071 0.7071 -0.0000
vn -0.0000 0.7071 -0.7071
vn 0.7071 -0.7071 -0.0000
vn -0.0000 -0.0000 -1.0000
vt 0.360000 0.515000
vt 0.140000 0.735000
vt 0.140000 0.515000
vt 0.610000 0.015000
vt 0.390000 0.235000
vt 0.390000 0.015000
vt 0.610000 0.765000
vt 0.390000 0.985000
vt 0.390000 0.765000
vt 0.860000 0.515000
vt 0.640000 0.735000
vt 0.640000 0.515000
vt 0.610000 0.515000
vt 0.390000 0.735000
vt 0.390000 0.515000
vt 0.610000 0.485000
vt 0.625000 0.485000
vt 0.610000 0.500000
vt 0.360000 0.500000
vt 0.375000 0.515000
vt 0.610000 0.750000
vt 0.625000 0.765000
vt 0.375000 0.735000
vt 0.360000 0.750000
vt 0.360000 0.735000
vt 0.610000 0.250000
vt 0.610000 0.235000
vt 0.625000 0.235000
vt 0.125000 0.515000
vt 0.140000 0.500000
vt 0.610000 0.000000
vt 0.625000 0.015000
vt 0.140000 0.750000
vt 0.125000 0.735000
vt 0.390000 0.000000
vt 0.610000 0.735000
vt 0.390000 0.265000
vt 0.610000 0.265000
vt 0.625000 0.985000
vt 0.625000 0.265000
vt 0.390000 0.485000
vt 0.610000 0.985000
vt 0.860000 0.735000
s 0
usemtl Material.003
f 4/1/1 22/2/1 18/3/1
f 19/4/2 16/5/2 24/6/2
f 9/7/3 23/8/3 11/9/3
f 15/10/4 8/11/4 2/12/4
f 3/13/5 10/14/5 6/15/5
f 1/16/6 2/17/6 3/18/6
f 4/1/7 5/19/7 6/20/7
f 7/21/8 8/22/8 9/7/8
f 10/23/9 11/24/9 12/25/9
f 13/26/10 14/27/10 15/28/10
f 16/29/11 17/30/11 18/3/11
f 19/4/12 20/31/12 21/32/12
f 22/2/13 23/33/13 24/34/13
f 22/2/14 16/29/14 18/3/14
f 18/3/15 5/19/15 4/1/15
f 6/15/16 1/16/16 3/13/16
f 20/31/17 24/6/17 23/35/17
f 11/9/18 7/36/18 9/7/18
f 17/37/19 14/27/19 13/38/19
f 21/39/20 9/7/20 8/22/20
f 8/11/21 3/13/21 2/12/21
f 12/25/22 23/33/22 22/2/22
f 15/28/23 19/4/23 21/32/23
f 2/17/24 13/38/24 15/40/24
f 4/1/25 10/14/25 12/25/25
f 13/38/26 5/41/26 17/37/26
f 4/1/1 12/25/1 22/2/1
f 19/4/2 14/27/2 16/5/2
f 9/7/3 20/42/3 23/8/3
f 15/10/4 21/43/4 8/11/4
f 3/13/5 7/36/5 10/14/5
f 22/2/14 24/34/14 16/29/14
f 18/3/15 17/30/15 5/19/15
f 6/15/16 5/41/16 1/16/16
f 20/31/17 19/4/17 24/6/17
f 11/9/18 10/14/18 7/36/18
f 17/37/19 16/5/19 14/27/19
f 21/39/20 20/42/20 9/7/20
f 8/11/21 7/36/21 3/13/21
f 12/25/22 11/24/22 23/33/22
f 15/28/23 14/27/23 19/4/23
f 2/17/24 1/16/24 13/38/24
f 4/1/25 6/15/25 10/14/25
f 13/38/26 1/16/26 5/41/26
o Plane
v -0.003893 -0.400000 -0.501000 0.2, 0.4, 0.9
v -0.400000 -0.003893 -0.501000 0.2, 0.4, 0.9
v -0.283983 -0.283983 -0.501000 0.2, 0.4, 0.9
v 0.400000 -0.003893 -0.501000 0.2, 0.4, 0.9
v 0.003893 -0.400000 -0.501000 0.2, 0.4, 0.9
v 0.283983 -0.283983 -0.501000 0.2, 0.4, 0.9
v -0.003893 0.400000 -0.501000 0.2, 0.4, 0.9
v -0.400000 0.003893 -0.501000 0.2, 0.4, 0.9
v -0.283983 0.283983 -0.501000 0.2, 0.4, 0.9
v 0.003893 0.400000 -0.501000 0.2, 0.4, 0.9
v 0.400000 0.003893 -0.501000 0.2, 0.4, 0.9
v 0.283983 0.283983 -0.501000 0.2, 0.4, 0.9
vn -0.0000 -0.0000 1.0000
vt 0.504866 0.000000
vt 0.854979 0.854979
vt 0.000000 0.504866
vt 0.000000 0.495134
vt 0.145021 0.145021
vt 0.495134 0.000000
vt 0.854979 0.145021
vt 1.000000 0.495134
vt 1.000000 0.504866
vt 0.504866 1.000000
vt 0.495134 1.000000
vt 0.145021 0.854979
s 0
usemtl Material.003
f 29/44/27 36/45/27 32/46/27
f 32/46/27 26/47/27 27/48/27
f 27/48/27 25/49/27 29/44/27
f 29/44/27 30/50/27 28/51/27
f 28/51/27 35/52/27 36/45/27
f 36/45/27 34/53/27 31/54/27
f 31/54/27 33/55/27 32/46/27
f 32/46/27 27/48/27 29/44/27
f 29/44/27 28/51/27 36/45/27
f 36/45/27 31/54/27 32/46/27
o Plane.001
v -0.003893 -0.501000 -0.400000 0.8 0.8 0.1
v -0.400000 -0.501000 -0.003893 0.8 0.8 0.1
v -0.283983 -0.501000 -0.283983 0.8 0.8 0.1
v 0.400000 -0.501000 -0.003893 0.8 0.8 0.1
v 0.003893 -0.501000 -0.400000 0.8 0.8 0.1
v 0.283983 -0.501000 -0.283983 0.8 0.8 0.1
v -0.003893 -0.501000 0.400000 0.8 0.8 0.1
v -0.400000 -0.501000 0.003893 0.8 0.8 0.1
v -0.283983 -0.501000 0.283983 0.8 0.8 0.1
v 0.003893 -0.501000 0.400000 0.8 0.8 0.1
v 0.400000 -0.501000 0.003893 0.8 0.8 0.1
v 0.283983 -0.501000 0.283983 0.8 0.8 0.1
vn -0.0000 -1.0000 -0.0000 
vt 0.504866 0.000000
vt 0.854979 0.854979
vt 0.000000 0.504866
vt 0.000000 0.495134
vt 0.145021 0.145021
vt 0.495134 0.000000
vt 0.854979 0.145021
vt 1.000000 0.495134
vt 1.000000 0.504866
vt 0.504866 1.000000
vt 0.495134 1.000000
vt 0.145021 0.854979
s 0
usemtl Material.003
f 41/56/28 48/57/28 44/58/28
f 44/58/28 38/59/28 39/60/28
f 39/60/28 37/61/28 41/56/28
f 41/56/28 42/62/28 40/63/28
f 40/63/28 47/64/28 48/57/28
f 48/57/28 46/65/28 43/66/28
f 43/66/28 45/67/28 44/58/28
f 44/58/28 39/60/28 41/56/28
f 41/56/28 40/63/28 48/57/28
f 48/57/28 43/66/28 44/58/28
o Plane.002
v -0.501000 0.003893 0.400000 0.9 0.4 0.1
v -0.501000 0.400000 0.003893 0.9 0.4 0.1
v -0.501000 0.283983 0.283983 0.9 0.4 0.1
v -0.501000 -0.400000 0.003893 0.9 0.4 0.1
v -0.501000 -0.003893 0.400000 0.9 0.4 0.1
v -0.501000 -0.283983 0.283983 0.9 0.4 0.1
v -0.501000 0.003893 -0.400000 0.9 0.4 0.1
v -0.501000 0.400000 -0.003893 0.9 0.4 0.1
v -0.501000 0.283983 -0.283983 0.9 0.4 0.1
v -0.501000 -0.003893 -0.400000 0.9 0.4 0.1
v -0.501000 -0.400000 -0.003893 0.9 0.4 0.1
v -0.501000 -0.283983 -0.283983 0.9 0.4 0.1
vn 1.0000 -0.0000 -0.0000
vt 0.504866 0.000000
vt 0.854979 0.854979
vt 0.000000 0.504866
vt 0.000000 0.495134
vt 0.145021 0.145021
vt 0.495134 0.000000
vt 0.854979 0.145021
vt 1.000000 0.495134
vt 1.000000 0.504866
vt 0.504866 1.000000
vt 0.495134 1.000000
vt 0.145021 0.854979
s 0
usemtl Material.003
f 53/68/29 60/69/29 56/70/29
f 56/70/29 50/71/29 51/72/29
f 51/72/29 49/73/29 53/68/29
f 53/68/29 54/74/29 52/75/29
f 52/75/29 59/76/29 60/69/29
f 60/69/29 58/77/29 55/78/29
f 55/78/29 57/79/29 56/70/29
f 56/70/29 51/72/29 53/68/29
f 53/68/29 52/75/29 60/69/29
f 60/69/29 55/78/29 56/70/29
