# Blender 3.6.15
# www.blender.org
mtllib edge_whiteOrange.mtl
o Cube
v -0.675000 0.675000 0.500000 0.0 0.0 0.0
v -0.500000 0.500000 0.325000 0.0 0.0 0.0
v -0.629707 0.629707 0.494037 0.0 0.0 0.0
v -0.587500 0.587500 0.476554 0.0 0.0 0.0
v -0.551256 0.551256 0.448744 0.0 0.0 0.0
v -0.523445 0.523446 0.412500 0.0 0.0 0.0
v -0.505963 0.505963 0.370293 0.0 0.0 0.0
v -0.675000 0.675000 -0.500000 0.0 0.0 0.0
v -0.500000 0.500000 -0.325000 0.0 0.0 0.0
v -0.629707 0.629707 -0.494037 0.0 0.0 0.0
v -0.587500 0.587500 -0.476554 0.0 0.0 0.0
v -0.551256 0.551256 -0.448744 0.0 0.0 0.0
v -0.523446 0.523445 -0.412500 0.0 0.0 0.0
v -0.505963 0.505963 -0.370293 0.0 0.0 0.0
v -0.500000 1.500000 0.325000 0.0 0.0 0.0
v -0.629707 1.500000 0.494037 0.0 0.0 0.0
v -0.587500 1.500000 0.476554 0.0 0.0 0.0
v -0.551256 1.500000 0.448744 0.0 0.0 0.0
v -0.523445 1.500000 0.412500 0.0 0.0 0.0
v -0.505963 1.500000 0.370293 0.0 0.0 0.0
v -0.500000 1.500000 -0.325000 0.0 0.0 0.0
v -0.505963 1.500000 -0.370293 0.0 0.0 0.0
v -0.523446 1.500000 -0.412500 0.0 0.0 0.0
v -0.551256 1.500000 -0.448744 0.0 0.0 0.0
v -0.587500 1.500000 -0.476555 0.0 0.0 0.0
v -0.629707 1.500000 -0.494037 0.0 0.0 0.0
v -1.500000 0.500000 0.325000 0.0 0.0 0.0
v -1.500000 0.505963 0.370293 0.0 0.0 0.0
v -1.500000 0.523446 0.412500 0.0 0.0 0.0
v -1.500000 0.551256 0.448744 0.0 0.0 0.0
v -1.500000 0.587500 0.476555 0.0 0.0 0.0
v -1.500000 0.629707 0.494037 0.0 0.0 0.0
v -1.500000 0.500000 -0.325000 0.0 0.0 0.0
v -1.500000 0.629707 -0.494037 0.0 0.0 0.0
v -1.500000 0.587500 -0.476554 0.0 0.0 0.0
v -1.500000 0.551256 -0.448744 0.0 0.0 0.0
v -1.500000 0.523445 -0.412500 0.0 0.0 0.0
v -1.500000 0.505963 -0.370293 0.0 0.0 0.0
v -1.500000 1.485000 0.485000 0.0 0.0 0.0
v -1.485000 1.485000 0.500000 0.0 0.0 0.0
v -1.485000 1.500000 0.485000 0.0 0.0 0.0
v -1.497996 1.485000 0.492490 0.0 0.0 0.0
v -1.497996 1.492490 0.485000 0.0 0.0 0.0
v -1.496049 1.492173 0.492173 0.0 0.0 0.0
v -1.485000 1.492490 0.497996 0.0 0.0 0.0
v -1.492490 1.485000 0.497996 0.0 0.0 0.0
v -1.492173 1.492173 0.496050 0.0 0.0 0.0
v -1.492490 1.497996 0.485000 0.0 0.0 0.0
v -1.485000 1.497996 0.492490 0.0 0.0 0.0
v -1.492173 1.496050 0.492173 0.0 0.0 0.0
v -1.485000 1.500000 -0.485000 0.0 0.0 0.0
v -1.485000 1.485000 -0.500000 0.0 0.0 0.0
v -1.500000 1.485000 -0.485000 0.0 0.0 0.0
v -1.485000 1.497996 -0.492490 0.0 0.0 0.0
v -1.492490 1.497996 -0.485000 0.0 0.0 0.0
v -1.492173 1.496049 -0.492173 0.0 0.0 0.0
v -1.492490 1.485000 -0.497996 0.0 0.0 0.0
v -1.485000 1.492490 -0.497996 0.0 0.0 0.0
v -1.492173 1.492173 -0.496049 0.0 0.0 0.0
v -1.497996 1.492490 -0.485000 0.0 0.0 0.0
v -1.497996 1.485000 -0.492490 0.0 0.0 0.0
v -1.496050 1.492173 -0.492173 0.0 0.0 0.0
v -0.629707 1.500000 0.494037 0.0 0.0 0.0
v -0.675000 1.485000 0.500000 0.0 0.0 0.0
v -0.652353 1.497990 0.497018 0.0 0.0 0.0
v -0.668932 1.492500 0.499201 0.0 0.0 0.0
v -0.675000 1.485000 -0.500000 0.0 0.0 0.0
v -0.629707 1.500000 -0.494037 0.0 0.0 0.0
v -0.668932 1.492500 -0.499201 0.0 0.0 0.0
v -0.652353 1.497990 -0.497019 0.0 0.0 0.0
v -1.485000 0.675000 0.500000 0.0 0.0 0.0
v -1.500000 0.629707 0.494037 0.0 0.0 0.0
v -1.492500 0.668932 0.499201 0.0 0.0 0.0
v -1.497990 0.652353 0.497019 0.0 0.0 0.0
v -1.500000 0.629707 -0.494037 0.0 0.0 0.0
v -1.485000 0.675000 -0.500000 0.0 0.0 0.0
v -1.497990 0.652353 -0.497018 0.0 0.0 0.0
v -1.492500 0.668932 -0.499201 0.0 0.0 0.0
vn -0.0000 -1.0000 -0.0000
vn -0.0000 -0.0000 -1.0000
vn 1.0000 -0.0000 -0.0000
vn -0.0000 -0.0000 1.0000
vn 0.3827 -0.0000 0.9239
vn 0.6088 -0.0000 0.7934
vn 0.7934 -0.0000 0.6088
vn 0.9239 -0.0000 0.3827
vn 0.9914 -0.0000 0.1305
vn 0.3827 -0.0000 -0.9239
vn 0.6088 -0.0000 -0.7934
vn 0.7934 -0.0000 -0.6088
vn 0.9239 -0.0000 -0.3827
vn 0.9914 -0.0000 -0.1305
vn -0.0000 -0.3827 0.9239
vn -0.0000 -0.6088 0.7934
vn -0.0000 -0.7934 0.6088
vn -0.0000 -0.9239 0.3827
vn -0.0000 -0.9914 0.1305
vn -0.0000 -0.3827 -0.9239
vn -0.0000 -0.6088 -0.7934
vn -0.0000 -0.7934 -0.6088
vn -0.0000 -0.9239 -0.3827
vn -0.0000 -0.9914 -0.1305
vn -0.9353 0.2502 0.2502
vn -0.6901 0.2178 0.6901
vn -0.2502 0.2502 0.9353
vn -0.2178 0.6901 0.6901
vn -0.2502 0.9353 0.2502
vn -0.6901 0.6901 0.2178
vn -0.5774 0.5774 0.5774
vn -0.2502 0.9353 -0.2502
vn -0.2178 0.6901 -0.6901
vn -0.2502 0.2502 -0.9353
vn -0.6901 0.2178 -0.6901
vn -0.9353 0.2502 -0.2502
vn -0.6901 0.6901 -0.2178
vn -0.5774 0.5774 -0.5774
vn -0.9660 0.2584 -0.0000
vn -0.7071 0.7071 -0.0000
vn -0.2585 0.9660 -0.0000
vn -0.0056 0.8484 0.5294
vn -0.0050 0.3825 0.9240
vn -0.0015 0.1071 0.9942
vn -0.9660 0.0014 0.2585
vn -0.7071 0.0011 0.7071
vn -0.2584 -0.0000 0.9660
vn -0.8484 0.0056 -0.5294
vn -0.3825 0.0050 -0.9240
vn -0.1071 0.0015 -0.9942
vn -0.0014 0.9660 -0.2584
vn -0.0011 0.7071 -0.7071
vn -0.0000 0.2585 -0.9660
vn 0.1305 -0.0000 0.9914
vn 0.1305 -0.0000 -0.9914
vn -0.0000 -0.1305 0.9914
vn -0.0000 -0.1305 -0.9914
vn -1.0000 -0.0000 -0.0000
vn -0.9280 0.2635 0.2635
vn -0.2635 0.2635 0.9280
vn -0.2635 0.9280 0.2635
vn -0.2635 0.9280 -0.2635
vn -0.2635 0.2635 -0.9280
vn -0.9280 0.2635 -0.2635
vn -0.9660 0.2585 -0.0000
vn -0.0014 0.9660 0.2584
vn -0.0011 0.7071 0.7071
vn -0.0000 0.2585 0.9660
vn -0.8484 0.0056 0.5294
vn -0.3825 0.0050 0.9240
vn -0.1071 0.0015 0.9942
vn -0.9660 0.0014 -0.2585
vn -0.7071 0.0011 -0.7071
vn -0.2584 -0.0000 -0.9660
vn -0.0056 0.8484 -0.5294
vn -0.0050 0.3825 -0.9240
vn -0.0015 0.1071 -0.9942
vn -0.0000 1.0000 -0.0000
vt 0.581250 0.750000
vt 0.418750 1.000000
vt 0.418750 0.750000
vt 0.831250 0.503750
vt 0.628750 0.706250
vt 0.628750 0.503750
vt 0.157427 0.717573
vt 0.157427 0.500000
vt 0.581250 0.000000
vt 0.418750 0.250000
vt 0.418750 0.000000
vt 0.371250 0.503750
vt 0.168750 0.706250
vt 0.168750 0.503750
vt 0.836912 0.500502
vt 0.842573 0.500000
vt 0.146875 0.500000
vt 0.146875 0.728125
vt 0.125000 0.500000
vt 0.375000 0.012814
vt 0.396875 0.250000
vt 0.375000 0.250000
vt 0.396875 0.005861
vt 0.407427 0.250000
vt 0.407427 0.001491
vt 0.375329 0.711912
vt 0.375000 0.717573
vt 0.842573 0.717573
vt 0.853125 0.500000
vt 0.853125 0.728125
vt 0.875000 0.500000
vt 0.875000 0.737186
vt 0.625000 0.012814
vt 0.603125 0.250000
vt 0.603125 0.005861
vt 0.592573 0.250000
vt 0.592573 0.001491
vt 0.581250 0.250000
vt 0.625000 0.717573
vt 0.375000 0.728125
vt 0.375000 0.750000
vt 0.137814 0.750000
vt 0.375000 0.987186
vt 0.396875 0.750000
vt 0.396875 0.994139
vt 0.407427 0.750000
vt 0.407427 0.998509
vt 0.581250 1.000000
vt 0.625000 0.728125
vt 0.625000 0.750000
vt 0.625000 0.987186
vt 0.603125 0.750000
vt 0.603125 0.994139
vt 0.592573 0.750000
vt 0.592573 0.998509
vt 0.623509 0.717573
vt 0.619139 0.728125
vt 0.376877 0.503750
vt 0.378750 0.501877
vt 0.378750 0.503750
vt 0.373123 0.503750
vt 0.376957 0.501957
vt 0.371250 0.501877
vt 0.373043 0.500000
vt 0.373043 0.501957
vt 0.378750 0.498122
vt 0.375000 0.496250
vt 0.378750 0.496250
vt 0.375000 0.498043
vt 0.374012 0.501957
vt 0.623123 0.496250
vt 0.621250 0.498123
vt 0.621250 0.496250
vt 0.625000 0.496250
vt 0.623043 0.498043
vt 0.626877 0.503750
vt 0.628750 0.500000
vt 0.623043 0.501957
vt 0.626957 0.500000
vt 0.621250 0.501877
vt 0.623123 0.503750
vt 0.621250 0.503750
vt 0.625000 0.498043
vt 0.623043 0.499012
vt 0.375000 0.293750
vt 0.376491 0.282427
vt 0.371250 0.500000
vt 0.167233 0.501875
vt 0.168750 0.500000
vt 0.373125 0.707767
vt 0.371250 0.706250
vt 0.624671 0.711912
vt 0.626875 0.707767
vt 0.624255 0.288088
vt 0.625000 0.293750
vt 0.380861 0.271875
vt 0.831250 0.706250
vt 0.163088 0.500502
vt 0.167233 0.501875
vt 0.832767 0.501875
vt 0.125000 0.737186
vt 0.625000 0.250000
vt 0.862186 0.750000
vt 0.612186 0.737186
vt 0.603125 0.744139
vt 0.592573 0.748509
vt 0.407427 0.748509
vt 0.387814 0.737186
vt 0.396875 0.744139
vt 0.376491 0.717573
vt 0.380861 0.728125
vt 0.623509 0.282427
vt 0.831250 0.500000
vt 0.387814 0.262814
vt 0.396875 0.255861
vt 0.407427 0.251491
vt 0.592573 0.251491
vt 0.612186 0.262814
vt 0.603125 0.255861
vt 0.619139 0.271875
s 0
f 33/1/1 2/2/1 27/3/1
f 67/4/2 76/5/2 52/6/2
f 3/7/2 16/8/2 63/8/2
f 9/9/3 15/10/3 2/11/3
f 40/12/4 1/13/4 64/14/4
f 70/15/2 68/16/2 26/16/2
f 3/7/5 17/17/5 16/8/5
f 4/18/6 18/19/6 17/17/6
f 5/20/7 19/21/7 18/22/7
f 6/23/8 20/24/8 19/21/8
f 7/25/9 15/10/9 20/24/9
f 74/26/2 72/27/2 32/27/2
f 10/28/10 25/29/10 11/30/10
f 11/30/11 24/31/11 12/32/11
f 12/33/12 23/34/12 13/35/12
f 13/35/13 22/36/13 14/37/13
f 14/37/14 21/38/14 9/9/14
f 10/28/2 34/39/2 75/39/2
f 3/7/15 31/40/15 4/18/15
f 4/18/16 30/41/16 5/42/16
f 5/43/17 29/44/17 6/45/17
f 6/45/18 28/46/18 7/47/18
f 7/47/19 27/3/19 2/2/19
f 33/1/1 9/48/1 2/2/1
f 10/28/20 35/49/20 34/39/20
f 11/30/21 36/50/21 35/49/21
f 12/51/22 37/52/22 36/50/22
f 13/53/23 38/54/23 37/52/23
f 14/55/24 33/1/24 38/54/24
f 75/56/2 34/56/2 35/57/2
f 42/58/25 43/59/25 39/60/25
f 46/61/26 44/62/26 42/58/26
f 45/63/27 46/61/27 40/12/27
f 45/63/28 50/64/28 47/65/28
f 48/66/29 49/67/29 41/68/29
f 43/59/30 50/69/30 48/66/30
f 44/70/31 47/65/31 50/64/31
f 54/71/32 55/72/32 51/73/32
f 58/74/33 56/75/33 54/71/33
f 57/76/34 58/77/34 52/6/34
f 57/76/35 62/78/35 59/79/35
f 60/80/36 61/81/36 53/82/36
f 55/72/37 62/78/37 60/80/37
f 56/75/38 59/83/38 62/84/38
f 39/60/39 60/80/39 53/82/39
f 43/59/40 55/72/40 60/80/40
f 48/66/41 51/73/41 55/72/41
f 41/68/42 65/85/42 63/86/42
f 49/87/43 66/88/43 65/89/43
f 45/63/44 64/14/44 66/88/44
f 39/60/45 74/26/45 42/58/45
f 42/58/46 73/90/46 46/61/46
f 46/61/47 71/91/47 40/12/47
f 53/82/48 77/92/48 75/56/48
f 61/81/49 78/93/49 77/92/49
f 57/76/50 76/5/50 78/93/50
f 51/73/51 70/94/51 54/71/51
f 54/71/52 69/95/52 58/74/52
f 58/77/53 67/4/53 52/6/53
f 63/86/2 16/86/2 17/96/2
f 67/4/2 8/97/2 76/5/2
f 65/98/54 66/99/54 64/14/54
f 64/14/54 1/13/54 63/8/54
f 1/13/54 3/7/54 63/8/54
f 65/98/54 64/14/54 63/8/54
f 9/9/3 21/38/3 15/10/3
f 40/12/4 71/91/4 1/13/4
f 10/28/55 8/97/55 26/16/55
f 8/97/55 67/4/55 26/16/55
f 67/4/55 69/100/55 70/15/55
f 67/4/55 70/15/55 26/16/55
f 3/7/5 4/18/5 17/17/5
f 4/18/6 5/101/6 18/19/6
f 5/20/7 6/23/7 19/21/7
f 6/23/8 7/25/8 20/24/8
f 7/25/9 2/11/9 15/10/9
f 3/7/56 1/13/56 32/27/56
f 1/13/56 71/91/56 32/27/56
f 71/91/56 73/90/56 74/26/56
f 71/91/56 74/26/56 32/27/56
f 10/28/10 26/16/10 25/29/10
f 11/30/11 25/29/11 24/31/11
f 12/33/12 24/102/12 23/34/12
f 13/35/13 23/34/13 22/36/13
f 14/37/14 22/36/14 21/38/14
f 77/92/57 78/93/57 76/5/57
f 76/5/57 8/97/57 75/39/57
f 8/97/57 10/28/57 75/39/57
f 77/92/57 76/5/57 75/39/57
f 3/7/15 32/27/15 31/40/15
f 4/18/16 31/40/16 30/41/16
f 5/43/17 30/41/17 29/44/17
f 6/45/18 29/44/18 28/46/18
f 7/47/19 28/46/19 27/3/19
f 10/28/20 11/30/20 35/49/20
f 11/30/21 12/103/21 36/50/21
f 12/51/22 13/53/22 37/52/22
f 13/53/23 14/55/23 38/54/23
f 14/55/24 9/48/24 33/1/24
f 35/57/58 36/104/58 33/1/58
f 36/104/58 37/105/58 33/1/58
f 37/105/58 38/106/58 33/1/58
f 33/1/58 27/3/58 39/60/58
f 27/3/58 28/107/58 30/108/58
f 28/107/58 29/109/58 30/108/58
f 27/3/58 30/108/58 32/110/58
f 35/57/58 33/1/58 75/56/58
f 27/3/58 32/110/58 39/60/58
f 30/108/58 31/111/58 32/110/58
f 32/110/2 72/110/2 39/60/2
f 75/56/58 33/1/58 53/82/58
f 33/1/58 39/60/58 53/82/58
f 42/58/59 44/62/59 43/59/59
f 46/61/26 47/65/26 44/62/26
f 45/63/60 47/65/60 46/61/60
f 45/63/28 49/87/28 50/64/28
f 48/66/61 50/69/61 49/67/61
f 43/59/30 44/62/30 50/69/30
f 54/71/62 56/75/62 55/72/62
f 58/74/33 59/83/33 56/75/33
f 57/76/63 59/79/63 58/77/63
f 57/76/35 61/81/35 62/78/35
f 60/80/64 62/78/64 61/81/64
f 55/72/37 56/75/37 62/78/37
f 39/60/65 43/59/65 60/80/65
f 43/59/40 48/66/40 55/72/40
f 48/66/41 41/68/41 51/73/41
f 41/68/66 49/67/66 65/85/66
f 49/87/67 45/63/67 66/88/67
f 45/63/68 40/12/68 64/14/68
f 39/60/69 72/110/69 74/26/69
f 42/58/70 74/26/70 73/90/70
f 46/61/71 73/90/71 71/91/71
f 53/82/72 61/81/72 77/92/72
f 61/81/73 57/76/73 78/93/73
f 57/76/74 52/6/74 76/5/74
f 51/73/75 68/112/75 70/94/75
f 54/71/76 70/94/76 69/95/76
f 58/77/77 69/113/77 67/4/77
f 17/96/78 18/114/78 15/10/78
f 18/114/78 19/115/78 15/10/78
f 19/115/78 20/116/78 15/10/78
f 15/10/78 21/38/78 51/73/78
f 21/38/78 22/117/78 24/118/78
f 22/117/78 23/119/78 24/118/78
f 21/38/78 24/118/78 26/112/78
f 17/96/78 15/10/78 63/86/78
f 21/38/78 26/112/78 51/73/78
f 24/118/78 25/120/78 26/112/78
f 26/112/2 68/112/2 51/73/2
f 63/86/78 15/10/78 41/68/78
f 15/10/78 51/73/78 41/68/78
o Plane
v -0.520000 1.501000 -0.312000
v -0.522068 1.501000 -0.338281
v -0.528223 1.501000 -0.363915
v -0.538311 1.501000 -0.388270
v -0.552085 1.501000 -0.410748
v -0.569206 1.501000 -0.430794
v -0.589252 1.501000 -0.447915
v -0.611730 1.501000 -0.461689
v -0.636085 1.501000 -0.471778
v -0.661719 1.501000 -0.477932
v -0.520000 1.501000 0.312000
v -0.661719 1.501000 0.477932
v -0.636085 1.501000 0.471777
v -0.611730 1.501000 0.461689
v -0.589252 1.501000 0.447915
v -0.569206 1.501000 0.430794
v -0.552085 1.501000 0.410748
v -0.538311 1.501000 0.388270
v -0.528222 1.501000 0.363915
v -0.522068 1.501000 0.338281
v -1.465600 1.501000 -0.480000
v -1.480000 1.501000 -0.465600
v -1.467853 1.501000 -0.479823
v -1.470050 1.501000 -0.479295
v -1.472138 1.501000 -0.478430
v -1.474064 1.501000 -0.477250
v -1.475782 1.501000 -0.475782
v -1.477250 1.501000 -0.474064
v -1.478431 1.501000 -0.472137
v -1.479295 1.501000 -0.470050
v -1.479823 1.501000 -0.467853
v -1.465600 1.501000 0.480000
v -1.480000 1.501000 0.465600
v -1.467853 1.501000 0.479823
v -1.470050 1.501000 0.479295
v -1.472137 1.501000 0.478431
v -1.474064 1.501000 0.477250
v -1.475782 1.501000 0.475782
v -1.477250 1.501000 0.474064
v -1.478431 1.501000 0.472138
v -1.479295 1.501000 0.470050
v -1.479823 1.501000 0.467853
v -0.673644 1.501000 -0.478870
v -0.702400 1.501000 -0.480000
v -0.676067 1.501000 -0.479047
v -0.678785 1.501000 -0.479219
v -0.681731 1.501000 -0.479383
v -0.684833 1.501000 -0.479534
v -0.688013 1.501000 -0.479669
v -0.691194 1.501000 -0.479784
v -0.694298 1.501000 -0.479877
v -0.697248 1.501000 -0.479945
v -0.699971 1.501000 -0.479986
v -0.702400 1.501000 0.480000
v -0.673644 1.501000 0.478870
v -0.699971 1.501000 0.479986
v -0.697248 1.501000 0.479945
v -0.694298 1.501000 0.479877
v -0.691194 1.501000 0.479784
v -0.688013 1.501000 0.479669
v -0.684833 1.501000 0.479534
v -0.681731 1.501000 0.479383
v -0.678785 1.501000 0.479219
v -0.676067 1.501000 0.479047
vn -0.0000 -1.0000 -0.0000
vt 0.010365 0.999266
vt 0.002865 0.993817
vt 0.000000 0.985000
vt 0.000000 0.190000
vt 0.015000 1.000000
vt 0.000014 0.187469
vt 0.175000 0.000000
vt 1.000000 0.190000
vt 0.825000 0.000000
vt 0.000058 0.184633
vt 0.000128 0.181560
vt 0.000225 0.178327
vt 0.000345 0.175014
vt 0.000485 0.171701
vt 0.000643 0.168470
vt 0.000813 0.165401
vt 0.000993 0.162570
vt 0.147624 0.002155
vt 0.001177 0.160046
vt 0.051256 0.051256
vt 0.002155 0.147624
vt 0.008565 0.120922
vt 0.019074 0.095552
vt 0.033422 0.072138
vt 0.072138 0.033422
vt 0.095552 0.019074
vt 0.120922 0.008565
vt 0.852376 0.002155
vt 0.998823 0.160046
vt 0.879078 0.008565
vt 0.904448 0.019074
vt 0.927862 0.033422
vt 0.948744 0.051256
vt 0.966578 0.072138
vt 0.980926 0.095552
vt 0.991435 0.120922
vt 0.997845 0.147624
vt 0.999007 0.162570
vt 0.999187 0.165401
vt 0.999357 0.168470
vt 0.999515 0.171701
vt 0.999655 0.175014
vt 0.999775 0.178327
vt 0.999872 0.181560
vt 0.999942 0.184633
vt 0.999986 0.187469
vt 1.000000 0.985000
vt 0.985000 1.000000
vt 0.999815 0.987347
vt 0.995607 0.995607
vt 0.999266 0.989635
vt 0.998365 0.991810
vt 0.997135 0.993817
vt 0.993817 0.997135
vt 0.987347 0.999815
vt 0.991810 0.998365
vt 0.989635 0.999266
vt 0.012653 0.999815
vt 0.008190 0.998365
vt 0.006183 0.997135
vt 0.004393 0.995607
vt 0.001635 0.991810
vt 0.000734 0.989635
vt 0.000185 0.987347
s 0
f 108/121/79 104/122/79 99/123/79
f 99/123/79 122/124/79 100/125/79
f 122/124/79 131/126/79 79/127/79
f 132/128/79 122/124/79 89/129/79
f 131/126/79 130/130/79 79/127/79
f 130/130/79 129/131/79 79/127/79
f 129/131/79 128/132/79 79/127/79
f 128/132/79 127/133/79 79/127/79
f 127/133/79 126/134/79 79/127/79
f 126/134/79 125/135/79 79/127/79
f 125/135/79 124/136/79 79/127/79
f 124/136/79 123/137/79 79/127/79
f 79/127/79 123/137/79 80/138/79
f 123/137/79 121/139/79 84/140/79
f 121/139/79 88/141/79 87/142/79
f 87/142/79 86/143/79 121/139/79
f 121/139/79 86/143/79 85/144/79
f 85/144/79 84/140/79 121/139/79
f 84/140/79 83/145/79 123/137/79
f 83/145/79 82/146/79 123/137/79
f 82/146/79 81/147/79 123/137/79
f 81/147/79 80/138/79 123/137/79
f 79/127/79 89/129/79 122/124/79
f 89/129/79 98/148/79 133/149/79
f 98/148/79 97/150/79 133/149/79
f 97/150/79 96/151/79 133/149/79
f 96/151/79 95/152/79 133/149/79
f 95/152/79 94/153/79 133/149/79
f 94/153/79 93/154/79 133/149/79
f 93/154/79 92/155/79 133/149/79
f 92/155/79 91/156/79 133/149/79
f 91/156/79 90/157/79 133/149/79
f 133/149/79 142/158/79 89/129/79
f 142/158/79 141/159/79 89/129/79
f 141/159/79 140/160/79 89/129/79
f 140/160/79 139/161/79 89/129/79
f 139/161/79 138/162/79 89/129/79
f 138/162/79 137/163/79 89/129/79
f 137/163/79 136/164/79 89/129/79
f 136/164/79 135/165/79 89/129/79
f 135/165/79 134/166/79 89/129/79
f 134/166/79 132/128/79 89/129/79
f 132/128/79 110/167/79 111/168/79
f 110/167/79 112/169/79 116/170/79
f 112/169/79 113/171/79 114/172/79
f 114/172/79 115/173/79 112/169/79
f 115/173/79 116/170/79 112/169/79
f 116/170/79 117/174/79 120/175/79
f 117/174/79 118/176/79 120/175/79
f 118/176/79 119/177/79 120/175/79
f 120/175/79 111/168/79 110/167/79
f 111/168/79 100/125/79 132/128/79
f 100/125/79 109/178/79 108/121/79
f 108/121/79 107/179/79 106/180/79
f 106/180/79 105/181/79 108/121/79
f 105/181/79 104/122/79 108/121/79
f 104/122/79 103/182/79 102/183/79
f 102/183/79 101/184/79 104/122/79
f 101/184/79 99/123/79 104/122/79
f 122/124/79 132/128/79 100/125/79
f 100/125/79 108/121/79 99/123/79
f 110/167/79 116/170/79 120/175/79
o Plane2
v -1.501000 0.520000 0.312000 0.9 0.4 0.1
v -1.501000 0.522068 0.338281 0.9 0.4 0.1
v -1.501000 0.528223 0.363915 0.9 0.4 0.1
v -1.501000 0.538311 0.388270 0.9 0.4 0.1
v -1.501000 0.552085 0.410748 0.9 0.4 0.1
v -1.501000 0.569206 0.430794 0.9 0.4 0.1
v -1.501000 0.589252 0.447915 0.9 0.4 0.1
v -1.501000 0.611730 0.461689 0.9 0.4 0.1
v -1.501000 0.636085 0.471777 0.9 0.4 0.1
v -1.501000 0.661719 0.477932 0.9 0.4 0.1
v -1.501000 0.520000 -0.312000 0.9 0.4 0.1
v -1.501000 0.661719 -0.477932 0.9 0.4 0.1
v -1.501000 0.636085 -0.471777 0.9 0.4 0.1
v -1.501000 0.611730 -0.461689 0.9 0.4 0.1
v -1.501000 0.589252 -0.447915 0.9 0.4 0.1
v -1.501000 0.569206 -0.430794 0.9 0.4 0.1
v -1.501000 0.552085 -0.410748 0.9 0.4 0.1
v -1.501000 0.538311 -0.388270 0.9 0.4 0.1
v -1.501000 0.528223 -0.363915 0.9 0.4 0.1
v -1.501000 0.522068 -0.338281 0.9 0.4 0.1
v -1.501000 1.465600 0.480000 0.9 0.4 0.1
v -1.501000 1.480000 0.465600 0.9 0.4 0.1
v -1.501000 1.467853 0.479823 0.9 0.4 0.1
v -1.501000 1.470050 0.479295 0.9 0.4 0.1
v -1.501000 1.472137 0.478431 0.9 0.4 0.1
v -1.501000 1.474064 0.477250 0.9 0.4 0.1
v -1.501000 1.475782 0.475782 0.9 0.4 0.1
v -1.501000 1.477250 0.474064 0.9 0.4 0.1
v -1.501000 1.478431 0.472138 0.9 0.4 0.1
v -1.501000 1.479295 0.470050 0.9 0.4 0.1
v -1.501000 1.479823 0.467853 0.9 0.4 0.1
v -1.501000 1.465600 -0.480000 0.9 0.4 0.1
v -1.501000 1.480000 -0.465600 0.9 0.4 0.1
v -1.501000 1.467853 -0.479823 0.9 0.4 0.1
v -1.501000 1.470050 -0.479295 0.9 0.4 0.1
v -1.501000 1.472137 -0.478431 0.9 0.4 0.1
v -1.501000 1.474064 -0.477250 0.9 0.4 0.1
v -1.501000 1.475782 -0.475782 0.9 0.4 0.1
v -1.501000 1.477250 -0.474064 0.9 0.4 0.1
v -1.501000 1.478431 -0.472138 0.9 0.4 0.1
v -1.501000 1.479295 -0.470050 0.9 0.4 0.1
v -1.501000 1.479823 -0.467853 0.9 0.4 0.1
v -1.501000 0.673644 0.478870 0.9 0.4 0.1
v -1.501000 0.702400 0.480000 0.9 0.4 0.1
v -1.501000 0.676067 0.479047 0.9 0.4 0.1
v -1.501000 0.678785 0.479219 0.9 0.4 0.1
v -1.501000 0.681731 0.479383 0.9 0.4 0.1
v -1.501000 0.684833 0.479534 0.9 0.4 0.1
v -1.501000 0.688013 0.479669 0.9 0.4 0.1
v -1.501000 0.691194 0.479784 0.9 0.4 0.1
v -1.501000 0.694298 0.479877 0.9 0.4 0.1
v -1.501000 0.697248 0.479945 0.9 0.4 0.1
v -1.501000 0.699971 0.479986 0.9 0.4 0.1
v -1.501000 0.702400 -0.480000 0.9 0.4 0.1
v -1.501000 0.673644 -0.478870 0.9 0.4 0.1
v -1.501000 0.699971 -0.479986 0.9 0.4 0.1
v -1.501000 0.697248 -0.479945 0.9 0.4 0.1
v -1.501000 0.694298 -0.479877 0.9 0.4 0.1
v -1.501000 0.691194 -0.479784 0.9 0.4 0.1
v -1.501000 0.688013 -0.479669 0.9 0.4 0.1
v -1.501000 0.684833 -0.479534 0.9 0.4 0.1
v -1.501000 0.681731 -0.479383 0.9 0.4 0.1
v -1.501000 0.678785 -0.479219 0.9 0.4 0.1
v -1.501000 0.676067 -0.479047 0.9 0.4 0.1
vn 1.0000 -0.0000 -0.0000
vt 0.010365 0.999266
vt 0.002865 0.993817
vt 0.000000 0.985000
vt 0.000000 0.190000
vt 0.015000 1.000000
vt 0.000014 0.187469
vt 0.175000 0.000000
vt 1.000000 0.190000
vt 0.825000 0.000000
vt 0.000058 0.184633
vt 0.000128 0.181560
vt 0.000225 0.178327
vt 0.000345 0.175014
vt 0.000485 0.171701
vt 0.000643 0.168470
vt 0.000813 0.165401
vt 0.000993 0.162570
vt 0.147624 0.002155
vt 0.001177 0.160046
vt 0.051256 0.051256
vt 0.002155 0.147624
vt 0.008565 0.120922
vt 0.019074 0.095552
vt 0.033422 0.072138
vt 0.072138 0.033422
vt 0.095552 0.019074
vt 0.120922 0.008565
vt 0.852376 0.002155
vt 0.998823 0.160046
vt 0.879078 0.008565
vt 0.904448 0.019074
vt 0.927862 0.033422
vt 0.948744 0.051256
vt 0.966578 0.072138
vt 0.980926 0.095552
vt 0.991435 0.120922
vt 0.997845 0.147624
vt 0.999007 0.162570
vt 0.999187 0.165401
vt 0.999357 0.168470
vt 0.999515 0.171701
vt 0.999655 0.175014
vt 0.999775 0.178327
vt 0.999872 0.181560
vt 0.999942 0.184633
vt 0.999986 0.187469
vt 1.000000 0.985000
vt 0.985000 1.000000
vt 0.999815 0.987347
vt 0.995607 0.995607
vt 0.999266 0.989635
vt 0.998365 0.991810
vt 0.997135 0.993817
vt 0.993817 0.997135
vt 0.987347 0.999815
vt 0.991810 0.998365
vt 0.989635 0.999266
vt 0.012653 0.999815
vt 0.008190 0.998365
vt 0.006183 0.997135
vt 0.004393 0.995607
vt 0.001635 0.991810
vt 0.000734 0.989635
vt 0.000185 0.987347
s 0
f 172/185/80 168/186/80 163/187/80
f 163/187/80 186/188/80 164/189/80
f 186/188/80 195/190/80 143/191/80
f 196/192/80 186/188/80 153/193/80
f 195/190/80 194/194/80 143/191/80
f 194/194/80 193/195/80 143/191/80
f 193/195/80 192/196/80 143/191/80
f 192/196/80 191/197/80 143/191/80
f 191/197/80 190/198/80 143/191/80
f 190/198/80 189/199/80 143/191/80
f 189/199/80 188/200/80 143/191/80
f 188/200/80 187/201/80 143/191/80
f 143/191/80 187/201/80 144/202/80
f 187/201/80 185/203/80 148/204/80
f 185/203/80 152/205/80 151/206/80
f 151/206/80 150/207/80 185/203/80
f 185/203/80 150/207/80 149/208/80
f 149/208/80 148/204/80 185/203/80
f 148/204/80 147/209/80 187/201/80
f 147/209/80 146/210/80 187/201/80
f 146/210/80 145/211/80 187/201/80
f 145/211/80 144/202/80 187/201/80
f 143/191/80 153/193/80 186/188/80
f 153/193/80 162/212/80 197/213/80
f 162/212/80 161/214/80 197/213/80
f 161/214/80 160/215/80 197/213/80
f 160/215/80 159/216/80 197/213/80
f 159/216/80 158/217/80 197/213/80
f 158/217/80 157/218/80 197/213/80
f 157/218/80 156/219/80 197/213/80
f 156/219/80 155/220/80 197/213/80
f 155/220/80 154/221/80 197/213/80
f 197/213/80 206/222/80 153/193/80
f 206/222/80 205/223/80 153/193/80
f 205/223/80 204/224/80 153/193/80
f 204/224/80 203/225/80 153/193/80
f 203/225/80 202/226/80 153/193/80
f 202/226/80 201/227/80 153/193/80
f 201/227/80 200/228/80 153/193/80
f 200/228/80 199/229/80 153/193/80
f 199/229/80 198/230/80 153/193/80
f 198/230/80 196/192/80 153/193/80
f 196/192/80 174/231/80 175/232/80
f 174/231/80 176/233/80 180/234/80
f 176/233/80 177/235/80 178/236/80
f 178/236/80 179/237/80 176/233/80
f 179/237/80 180/234/80 176/233/80
f 180/234/80 181/238/80 184/239/80
f 181/238/80 182/240/80 184/239/80
f 182/240/80 183/241/80 184/239/80
f 184/239/80 175/232/80 174/231/80
f 175/232/80 164/189/80 196/192/80
f 164/189/80 173/242/80 172/185/80
f 172/185/80 171/243/80 170/244/80
f 170/244/80 169/245/80 172/185/80
f 169/245/80 168/186/80 172/185/80
f 168/186/80 167/246/80 166/247/80
f 166/247/80 165/248/80 168/186/80
f 165/248/80 163/187/80 168/186/80
f 186/188/80 196/192/80 164/189/80
f 164/189/80 172/185/80 163/187/80
f 174/231/80 180/234/80 184/239/80
