# Blender 4.2.1 LTS
# www.blender.org
mtllib edge_whiteRed.mtl
o Cube.001
v 0.500000 0.500000 0.500000
v -0.500000 -0.500000 0.500000
v -0.500000 0.500000 0.500000
v 0.500000 0.500000 -0.500000
v -0.500000 -0.500000 -0.500000
v -0.500000 0.500000 -0.500000
v -0.500000 -0.500000 0.500000
v 0.500000 0.500000 0.500000
v -0.467948 -0.499486 0.500000
v -0.435930 -0.497945 0.500000
v -0.403977 -0.495379 0.500000
v -0.372123 -0.491790 0.500000
v -0.340400 -0.487182 0.500000
v -0.308841 -0.481559 0.500000
v -0.277479 -0.474928 0.500000
v -0.246345 -0.467295 0.500000
v -0.215472 -0.458668 0.500000
v -0.184892 -0.449056 0.500000
v -0.154635 -0.438468 0.500000
v -0.124733 -0.426917 0.500000
v -0.095217 -0.414413 0.500000
v -0.066116 -0.400969 0.500000
v -0.037462 -0.386599 0.500000
v -0.009282 -0.371319 0.500000
v 0.018393 -0.355143 0.500000
v 0.045535 -0.338088 0.500000
v 0.072117 -0.320172 0.500000
v 0.098111 -0.301414 0.500000
v 0.123490 -0.281832 0.500000
v 0.148228 -0.261446 0.500000
v 0.172301 -0.240278 0.500000
v 0.195683 -0.218349 0.500000
v 0.218349 -0.195683 0.500000
v 0.240278 -0.172301 0.500000
v 0.261446 -0.148228 0.500000
v 0.281832 -0.123490 0.500000
v 0.301414 -0.098111 0.500000
v 0.320172 -0.072117 0.500000
v 0.338088 -0.045535 0.500000
v 0.355143 -0.018393 0.500000
v 0.371319 0.009282 0.500000
v 0.386599 0.037462 0.500000
v 0.400969 0.066116 0.500000
v 0.414413 0.095217 0.500000
v 0.426917 0.124733 0.500000
v 0.438468 0.154635 0.500000
v 0.449056 0.184892 0.500000
v 0.458668 0.215472 0.500000
v 0.467295 0.246345 0.500000
v 0.474928 0.277479 0.500000
v 0.481559 0.308841 0.500000
v 0.487182 0.340400 0.500000
v 0.491790 0.372123 0.500000
v 0.495379 0.403977 0.500000
v 0.497945 0.435930 0.500000
v 0.499486 0.467948 0.500000
v 0.500000 0.500000 -0.500000
v -0.500000 -0.500000 -0.500000
v 0.499486 0.467948 -0.500000
v 0.497945 0.435930 -0.500000
v 0.495379 0.403977 -0.500000
v 0.491790 0.372123 -0.500000
v 0.487182 0.340400 -0.500000
v 0.481559 0.308841 -0.500000
v 0.474928 0.277479 -0.500000
v 0.467295 0.246345 -0.500000
v 0.458668 0.215472 -0.500000
v 0.449056 0.184892 -0.500000
v 0.438468 0.154635 -0.500000
v 0.426917 0.124733 -0.500000
v 0.414413 0.095217 -0.500000
v 0.400969 0.066116 -0.500000
v 0.386599 0.037462 -0.500000
v 0.371319 0.009282 -0.500000
v 0.355143 -0.018393 -0.500000
v 0.338088 -0.045535 -0.500000
v 0.320172 -0.072117 -0.500000
v 0.301414 -0.098111 -0.500000
v 0.281831 -0.123490 -0.500000
v 0.261446 -0.148228 -0.500000
v 0.240278 -0.172301 -0.500000
v 0.218349 -0.195683 -0.500000
v 0.195683 -0.218349 -0.500000
v 0.172301 -0.240278 -0.500000
v 0.148228 -0.261446 -0.500000
v 0.123490 -0.281832 -0.500000
v 0.098111 -0.301414 -0.500000
v 0.072117 -0.320172 -0.500000
v 0.045535 -0.338088 -0.500000
v 0.018393 -0.355143 -0.500000
v -0.009282 -0.371319 -0.500000
v -0.037462 -0.386599 -0.500000
v -0.066116 -0.400969 -0.500000
v -0.095217 -0.414413 -0.500000
v -0.124733 -0.426917 -0.500000
v -0.154635 -0.438468 -0.500000
v -0.184892 -0.449056 -0.500000
v -0.215472 -0.458668 -0.500000
v -0.246345 -0.467295 -0.500000
v -0.277479 -0.474928 -0.500000
v -0.308841 -0.481559 -0.500000
v -0.340400 -0.487182 -0.500000
v -0.372123 -0.491790 -0.500000
v -0.403977 -0.495379 -0.500000
v -0.435930 -0.497945 -0.500000
v -0.467948 -0.499486 -0.500000
vn -0.0000 1.0000 -0.0000
vn -1.0000 -0.0000 -0.0000
vn -0.0000 -0.0000 -1.0000
vn -0.0000 -0.0000 1.0000
vn 0.0160 -0.9999 -0.0000
vn 0.0481 -0.9988 -0.0000
vn 0.0801 -0.9968 -0.0000
vn 0.1120 -0.9937 -0.0000
vn 0.1438 -0.9896 -0.0000
vn 0.1754 -0.9845 -0.0000
vn 0.2069 -0.9784 -0.0000
vn 0.2381 -0.9712 -0.0000
vn 0.2691 -0.9631 -0.0000
vn 0.2999 -0.9540 -0.0000
vn 0.3303 -0.9439 -0.0000
vn 0.3604 -0.9328 -0.0000
vn 0.3901 -0.9208 -0.0000
vn 0.4194 -0.9078 -0.0000
vn 0.4483 -0.8939 -0.0000
vn 0.4767 -0.8791 -0.0000
vn 0.5046 -0.8633 -0.0000
vn 0.5320 -0.8467 -0.0000
vn 0.5589 -0.8292 -0.0000
vn 0.5852 -0.8109 -0.0000
vn 0.6109 -0.7917 -0.0000
vn 0.6359 -0.7717 -0.0000
vn 0.6603 -0.7510 -0.0000
vn 0.6841 -0.7294 -0.0000
vn 0.7071 -0.7071 -0.0000
vn 0.7294 -0.6841 -0.0000
vn 0.7510 -0.6603 -0.0000
vn 0.7717 -0.6359 -0.0000
vn 0.7917 -0.6109 -0.0000
vn 0.8109 -0.5852 -0.0000
vn 0.8292 -0.5589 -0.0000
vn 0.8467 -0.5320 -0.0000
vn 0.8633 -0.5046 -0.0000
vn 0.8791 -0.4767 -0.0000
vn 0.8939 -0.4483 -0.0000
vn 0.9078 -0.4194 -0.0000
vn 0.9208 -0.3901 -0.0000
vn 0.9328 -0.3604 -0.0000
vn 0.9439 -0.3303 -0.0000
vn 0.9540 -0.2999 -0.0000
vn 0.9631 -0.2691 -0.0000
vn 0.9712 -0.2381 -0.0000
vn 0.9784 -0.2069 -0.0000
vn 0.9845 -0.1754 -0.0000
vn 0.9896 -0.1438 -0.0000
vn 0.9937 -0.1120 -0.0000
vn 0.9968 -0.0801 -0.0000
vn 0.9988 -0.0481 -0.0000
vn 0.9999 -0.0160 -0.0000
vt 0.625000 0.750000
vt 0.625000 1.000000
vt 0.625000 0.250000
vt 0.375000 0.500000
vt 0.375000 0.250000
vt 0.625000 0.500000
vt 0.375128 0.508013
vt 0.616987 0.000128
vt 0.625000 0.000000
vt 0.875000 0.500000
vt 0.125000 0.508013
vt 0.125000 0.500000
vt 0.375000 0.508013
vt 0.125000 0.516018
vt 0.375000 0.516018
vt 0.125000 0.524006
vt 0.375000 0.524006
vt 0.125000 0.531969
vt 0.375000 0.531969
vt 0.125000 0.539900
vt 0.375000 0.539900
vt 0.125000 0.547790
vt 0.375000 0.547790
vt 0.125000 0.555630
vt 0.375000 0.555630
vt 0.125000 0.563414
vt 0.375000 0.563414
vt 0.125000 0.571132
vt 0.375000 0.571132
vt 0.125000 0.578777
vt 0.375000 0.578777
vt 0.125000 0.586341
vt 0.375000 0.586341
vt 0.125000 0.593817
vt 0.375000 0.593817
vt 0.125000 0.601196
vt 0.375000 0.601196
vt 0.125000 0.608471
vt 0.375000 0.608471
vt 0.125000 0.615635
vt 0.375000 0.615635
vt 0.125000 0.622679
vt 0.375000 0.622679
vt 0.125000 0.629598
vt 0.375000 0.629598
vt 0.125000 0.636384
vt 0.375000 0.636384
vt 0.125000 0.643029
vt 0.375000 0.643029
vt 0.125000 0.649528
vt 0.375000 0.649528
vt 0.125000 0.655872
vt 0.375000 0.655872
vt 0.125000 0.662057
vt 0.375000 0.662057
vt 0.125000 0.668075
vt 0.375000 0.668075
vt 0.125000 0.673921
vt 0.375000 0.673921
vt 0.125000 0.750000
vt 0.375000 0.750000
vt 0.456925 1.000000
vt 0.375000 1.000000
vt 0.456925 0.750000
vt 0.462943 1.000000
vt 0.462943 0.750000
vt 0.469128 1.000000
vt 0.469128 0.750000
vt 0.475472 1.000000
vt 0.475472 0.750000
vt 0.481971 1.000000
vt 0.481971 0.750000
vt 0.488616 1.000000
vt 0.488616 0.750000
vt 0.495402 1.000000
vt 0.495402 0.750000
vt 0.502321 1.000000
vt 0.502321 0.750000
vt 0.509365 1.000000
vt 0.509365 0.750000
vt 0.516529 1.000000
vt 0.516529 0.750000
vt 0.523804 1.000000
vt 0.523804 0.750000
vt 0.531183 1.000000
vt 0.531183 0.750000
vt 0.538659 1.000000
vt 0.538659 0.750000
vt 0.546223 1.000000
vt 0.546223 0.750000
vt 0.553868 1.000000
vt 0.553868 0.750000
vt 0.561586 1.000000
vt 0.561586 0.750000
vt 0.569370 1.000000
vt 0.569370 0.750000
vt 0.577210 1.000000
vt 0.577210 0.750000
vt 0.585100 1.000000
vt 0.585100 0.750000
vt 0.593031 1.000000
vt 0.593031 0.750000
vt 0.600994 1.000000
vt 0.600994 0.750000
vt 0.608982 1.000000
vt 0.608982 0.750000
vt 0.616987 1.000000
vt 0.616987 0.750000
vt 0.616987 0.749872
vt 0.608982 0.749486
vt 0.600994 0.748845
vt 0.593031 0.747948
vt 0.585100 0.746795
vt 0.577210 0.745390
vt 0.569370 0.743732
vt 0.561586 0.741824
vt 0.553868 0.739667
vt 0.546223 0.737264
vt 0.538659 0.734617
vt 0.531183 0.731729
vt 0.523804 0.728603
vt 0.516529 0.725242
vt 0.509365 0.721650
vt 0.502321 0.717830
vt 0.495402 0.713786
vt 0.488616 0.709522
vt 0.481971 0.705043
vt 0.475472 0.700353
vt 0.469128 0.695458
vt 0.462943 0.690361
vt 0.456925 0.685069
vt 0.451079 0.679587
vt 0.445413 0.673921
vt 0.439930 0.668075
vt 0.434639 0.662057
vt 0.429542 0.655872
vt 0.424647 0.649528
vt 0.419957 0.643029
vt 0.415478 0.636384
vt 0.411214 0.629598
vt 0.407170 0.622679
vt 0.403350 0.615635
vt 0.399758 0.608471
vt 0.396397 0.601196
vt 0.393271 0.593817
vt 0.390383 0.586341
vt 0.387736 0.578777
vt 0.385333 0.571132
vt 0.383176 0.563414
vt 0.381268 0.555630
vt 0.379610 0.547790
vt 0.378205 0.539900
vt 0.377053 0.531969
vt 0.376155 0.524006
vt 0.375514 0.516018
vt 0.375128 0.241987
vt 0.375514 0.233982
vt 0.376155 0.225994
vt 0.377053 0.218031
vt 0.378205 0.210100
vt 0.379610 0.202210
vt 0.381268 0.194370
vt 0.383176 0.186586
vt 0.385333 0.178868
vt 0.387736 0.171223
vt 0.390383 0.163659
vt 0.393271 0.156183
vt 0.396397 0.148804
vt 0.399758 0.141529
vt 0.403350 0.134365
vt 0.407170 0.127321
vt 0.411214 0.120402
vt 0.415478 0.113616
vt 0.419957 0.106971
vt 0.424647 0.100472
vt 0.429542 0.094128
vt 0.434639 0.087943
vt 0.439930 0.081925
vt 0.445413 0.076079
vt 0.451079 0.070413
vt 0.456925 0.064930
vt 0.462943 0.059639
vt 0.469128 0.054542
vt 0.475472 0.049647
vt 0.481971 0.044957
vt 0.488616 0.040478
vt 0.495402 0.036214
vt 0.502321 0.032170
vt 0.509365 0.028350
vt 0.516529 0.024758
vt 0.523804 0.021397
vt 0.531183 0.018271
vt 0.538659 0.015383
vt 0.546223 0.012736
vt 0.553868 0.010333
vt 0.561586 0.008176
vt 0.569370 0.006268
vt 0.577210 0.004610
vt 0.585100 0.003205
vt 0.593031 0.002053
vt 0.600994 0.001155
vt 0.608982 0.000514
vt 0.875000 0.750000
s 0
f 57/1/1 1/2/1 8/2/1
f 3/3/2 5/4/2 2/5/2
f 5/4/3 6/6/3 106/7/3
f 56/8/4 1/9/4 3/3/4
f 3/10/1 4/1/1 6/6/1
f 58/4/5 9/11/5 7/12/5
f 106/13/6 10/14/6 9/11/6
f 105/15/7 11/16/7 10/14/7
f 104/17/8 12/18/8 11/16/8
f 103/19/9 13/20/9 12/18/9
f 102/21/10 14/22/10 13/20/10
f 101/23/11 15/24/11 14/22/11
f 100/25/12 16/26/12 15/24/12
f 99/27/13 17/28/13 16/26/13
f 98/29/14 18/30/14 17/28/14
f 97/31/15 19/32/15 18/30/15
f 96/33/16 20/34/16 19/32/16
f 95/35/17 21/36/17 20/34/17
f 94/37/18 22/38/18 21/36/18
f 93/39/19 23/40/19 22/38/19
f 92/41/20 24/42/20 23/40/20
f 91/43/21 25/44/21 24/42/21
f 90/45/22 26/46/22 25/44/22
f 89/47/23 27/48/23 26/46/23
f 88/49/24 28/50/24 27/48/24
f 87/51/25 29/52/25 28/50/25
f 86/53/26 30/54/26 29/52/26
f 85/55/27 31/56/27 30/54/27
f 84/57/28 32/58/28 31/56/28
f 83/59/29 33/60/29 32/58/29
f 82/61/30 34/62/30 33/63/30
f 81/64/31 35/65/31 34/62/31
f 80/66/32 36/67/32 35/65/32
f 79/68/33 37/69/33 36/67/33
f 78/70/34 38/71/34 37/69/34
f 77/72/35 39/73/35 38/71/35
f 76/74/36 40/75/36 39/73/36
f 75/76/37 41/77/37 40/75/37
f 74/78/38 42/79/38 41/77/38
f 73/80/39 43/81/39 42/79/39
f 72/82/40 44/83/40 43/81/40
f 71/84/41 45/85/41 44/83/41
f 70/86/42 46/87/42 45/85/42
f 69/88/43 47/89/43 46/87/43
f 68/90/44 48/91/44 47/89/44
f 67/92/45 49/93/45 48/91/45
f 66/94/46 50/95/46 49/93/46
f 65/96/47 51/97/47 50/95/47
f 64/98/48 52/99/48 51/97/48
f 63/100/49 53/101/49 52/99/49
f 62/102/50 54/103/50 53/101/50
f 61/104/51 55/105/51 54/103/51
f 60/106/52 56/107/52 55/105/52
f 59/108/53 8/2/53 56/107/53
f 2/12/1 58/4/1 7/12/1
f 57/1/1 4/1/1 1/2/1
f 3/3/2 6/6/2 5/4/2
f 59/109/3 60/110/3 61/111/3
f 61/111/3 62/112/3 63/113/3
f 63/113/3 64/114/3 65/115/3
f 65/115/3 66/116/3 67/117/3
f 67/117/3 68/118/3 69/119/3
f 69/119/3 70/120/3 71/121/3
f 71/121/3 72/122/3 73/123/3
f 73/123/3 74/124/3 75/125/3
f 75/125/3 76/126/3 77/127/3
f 77/127/3 78/128/3 79/129/3
f 79/129/3 80/130/3 81/131/3
f 81/131/3 82/132/3 83/133/3
f 83/133/3 84/134/3 85/135/3
f 85/135/3 86/136/3 87/137/3
f 87/137/3 88/138/3 89/139/3
f 89/139/3 90/140/3 91/141/3
f 91/141/3 92/142/3 93/143/3
f 93/143/3 94/144/3 95/145/3
f 95/145/3 96/146/3 97/147/3
f 97/147/3 98/148/3 99/149/3
f 99/149/3 100/150/3 101/151/3
f 101/151/3 102/152/3 103/153/3
f 103/153/3 104/154/3 105/155/3
f 59/109/3 61/111/3 63/113/3
f 63/113/3 65/115/3 67/117/3
f 67/117/3 69/119/3 71/121/3
f 71/121/3 73/123/3 75/125/3
f 75/125/3 77/127/3 79/129/3
f 79/129/3 81/131/3 83/133/3
f 83/133/3 85/135/3 87/137/3
f 87/137/3 89/139/3 91/141/3
f 91/141/3 93/143/3 95/145/3
f 95/145/3 97/147/3 99/149/3
f 99/149/3 101/151/3 103/153/3
f 103/153/3 105/155/3 106/7/3
f 99/149/3 103/153/3 106/7/3
f 91/141/3 95/145/3 99/149/3
f 83/133/3 87/137/3 91/141/3
f 75/125/3 79/129/3 83/133/3
f 67/117/3 71/121/3 75/125/3
f 59/109/3 63/113/3 67/117/3
f 59/109/3 67/117/3 75/125/3
f 75/125/3 83/133/3 91/141/3
f 91/141/3 99/149/3 106/7/3
f 75/125/3 91/141/3 106/7/3
f 59/109/3 75/125/3 106/7/3
f 6/6/1 4/1/1 57/1/1
f 57/1/3 59/109/3 106/7/3
f 6/6/3 57/1/3 106/7/3
f 106/7/1 58/4/1 5/4/1
f 9/156/4 10/157/4 11/158/4
f 11/158/4 12/159/4 13/160/4
f 13/160/4 14/161/4 15/162/4
f 15/162/4 16/163/4 17/164/4
f 17/164/4 18/165/4 19/166/4
f 19/166/4 20/167/4 21/168/4
f 21/168/4 22/169/4 23/170/4
f 23/170/4 24/171/4 25/172/4
f 25/172/4 26/173/4 27/174/4
f 27/174/4 28/175/4 29/176/4
f 29/176/4 30/177/4 31/178/4
f 31/178/4 32/179/4 33/180/4
f 33/180/4 34/181/4 35/182/4
f 35/182/4 36/183/4 37/184/4
f 37/184/4 38/185/4 39/186/4
f 39/186/4 40/187/4 41/188/4
f 41/188/4 42/189/4 43/190/4
f 43/190/4 44/191/4 45/192/4
f 45/192/4 46/193/4 47/194/4
f 47/194/4 48/195/4 49/196/4
f 49/196/4 50/197/4 51/198/4
f 51/198/4 52/199/4 53/200/4
f 53/200/4 54/201/4 55/202/4
f 9/156/4 11/158/4 13/160/4
f 13/160/4 15/162/4 17/164/4
f 17/164/4 19/166/4 21/168/4
f 21/168/4 23/170/4 25/172/4
f 25/172/4 27/174/4 29/176/4
f 29/176/4 31/178/4 33/180/4
f 33/180/4 35/182/4 37/184/4
f 37/184/4 39/186/4 41/188/4
f 41/188/4 43/190/4 45/192/4
f 45/192/4 47/194/4 49/196/4
f 49/196/4 51/198/4 53/200/4
f 53/200/4 55/202/4 56/8/4
f 49/196/4 53/200/4 56/8/4
f 41/188/4 45/192/4 49/196/4
f 33/180/4 37/184/4 41/188/4
f 25/172/4 29/176/4 33/180/4
f 17/164/4 21/168/4 25/172/4
f 9/156/4 13/160/4 17/164/4
f 9/156/4 17/164/4 25/172/4
f 25/172/4 33/180/4 41/188/4
f 41/188/4 49/196/4 56/8/4
f 25/172/4 41/188/4 56/8/4
f 9/156/4 25/172/4 56/8/4
f 3/3/1 2/5/1 7/5/1
f 7/5/4 9/156/4 56/8/4
f 3/3/4 7/5/4 56/8/4
f 56/8/1 8/9/1 1/9/1
f 3/10/1 1/203/1 4/1/1
f 58/4/5 106/13/5 9/11/5
f 106/13/6 105/15/6 10/14/6
f 105/15/7 104/17/7 11/16/7
f 104/17/8 103/19/8 12/18/8
f 103/19/9 102/21/9 13/20/9
f 102/21/10 101/23/10 14/22/10
f 101/23/11 100/25/11 15/24/11
f 100/25/12 99/27/12 16/26/12
f 99/27/13 98/29/13 17/28/13
f 98/29/14 97/31/14 18/30/14
f 97/31/15 96/33/15 19/32/15
f 96/33/16 95/35/16 20/34/16
f 95/35/17 94/37/17 21/36/17
f 94/37/18 93/39/18 22/38/18
f 93/39/19 92/41/19 23/40/19
f 92/41/20 91/43/20 24/42/20
f 91/43/21 90/45/21 25/44/21
f 90/45/22 89/47/22 26/46/22
f 89/47/23 88/49/23 27/48/23
f 88/49/24 87/51/24 28/50/24
f 87/51/25 86/53/25 29/52/25
f 86/53/26 85/55/26 30/54/26
f 85/55/27 84/57/27 31/56/27
f 84/57/28 83/59/28 32/58/28
f 83/59/29 82/61/29 33/60/29
f 82/61/30 81/64/30 34/62/30
f 81/64/31 80/66/31 35/65/31
f 80/66/32 79/68/32 36/67/32
f 79/68/33 78/70/33 37/69/33
f 78/70/34 77/72/34 38/71/34
f 77/72/35 76/74/35 39/73/35
f 76/74/36 75/76/36 40/75/36
f 75/76/37 74/78/37 41/77/37
f 74/78/38 73/80/38 42/79/38
f 73/80/39 72/82/39 43/81/39
f 72/82/40 71/84/40 44/83/40
f 71/84/41 70/86/41 45/85/41
f 70/86/42 69/88/42 46/87/42
f 69/88/43 68/90/43 47/89/43
f 68/90/44 67/92/44 48/91/44
f 67/92/45 66/94/45 49/93/45
f 66/94/46 65/96/46 50/95/46
f 65/96/47 64/98/47 51/97/47
f 64/98/48 63/100/48 52/99/48
f 63/100/49 62/102/49 53/101/49
f 62/102/50 61/104/50 54/103/50
f 61/104/51 60/106/51 55/105/51
f 60/106/52 59/108/52 56/107/52
f 59/108/53 57/1/53 8/2/53
f 2/12/1 5/4/1 58/4/1
