# Blender 3.6.15
# www.blender.org
mtllib edge_yellowOrange.mtl
o Cube
v 0.325000 0.325000 0.500000 0.0 0.0 0.0
v 0.500000 0.500000 0.325000 0.0 0.0 0.0
v 0.370293 0.370293 0.494037 0.0 0.0 0.0
v 0.412500 0.412500 0.476554 0.0 0.0 0.0
v 0.448744 0.448744 0.448744 0.0 0.0 0.0
v 0.476554 0.476555 0.412500 0.0 0.0 0.0
v 0.494037 0.494037 0.370293 0.0 0.0 0.0
v 0.325000 0.325000 -0.500000 0.0 0.0 0.0
v 0.500000 0.500000 -0.325000 0.0 0.0 0.0
v 0.370293 0.370293 -0.494037 0.0 0.0 0.0
v 0.412500 0.412500 -0.476555 0.0 0.0 0.0
v 0.448744 0.448744 -0.448744 0.0 0.0 0.0
v 0.476555 0.476554 -0.412500 0.0 0.0 0.0
v 0.494037 0.494037 -0.370293 0.0 0.0 0.0
v -0.500000 0.500000 0.325000 0.0 0.0 0.0
v -0.500000 0.370293 0.494037 0.0 0.0 0.0
v -0.500000 0.412500 0.476554 0.0 0.0 0.0
v -0.500000 0.448744 0.448743 0.0 0.0 0.0
v -0.500000 0.476555 0.412500 0.0 0.0 0.0
v -0.500000 0.494037 0.370293 0.0 0.0 0.0
v -0.500000 0.500000 -0.325000 0.0 0.0 0.0
v -0.500000 0.494037 -0.370294 0.0 0.0 0.0
v -0.500000 0.476554 -0.412500 0.0 0.0 0.0
v -0.500000 0.448744 -0.448744 0.0 0.0 0.0
v -0.500000 0.412500 -0.476555 0.0 0.0 0.0
v -0.500000 0.370293 -0.494037 0.0 0.0 0.0
v 0.500000 -0.500000 0.325000 0.0 0.0 0.0
v 0.494037 -0.500000 0.370294 0.0 0.0 0.0
v 0.476554 -0.500000 0.412500 0.0 0.0 0.0
v 0.448744 -0.500000 0.448744 0.0 0.0 0.0
v 0.412500 -0.500000 0.476555 0.0 0.0 0.0
v 0.370293 -0.500000 0.494037 0.0 0.0 0.0
v 0.500000 -0.500000 -0.325000 0.0 0.0 0.0
v 0.370293 -0.500000 -0.494037 0.0 0.0 0.0
v 0.412500 -0.500000 -0.476554 0.0 0.0 0.0
v 0.448744 -0.500000 -0.448743 0.0 0.0 0.0
v 0.476555 -0.500000 -0.412500 0.0 0.0 0.0
v 0.494037 -0.500000 -0.370293 0.0 0.0 0.0
v -0.485000 -0.500000 0.485000 0.0 0.0 0.0
v -0.485000 -0.485000 0.500000 0.0 0.0 0.0
v -0.500000 -0.485000 0.485000 0.0 0.0 0.0
v -0.485000 -0.497996 0.492490 0.0 0.0 0.0
v -0.492490 -0.497996 0.485000 0.0 0.0 0.0
v -0.492173 -0.496049 0.492173 0.0 0.0 0.0
v -0.492490 -0.485000 0.497996 0.0 0.0 0.0
v -0.485000 -0.492490 0.497996 0.0 0.0 0.0
v -0.492173 -0.492173 0.496050 0.0 0.0 0.0
v -0.497996 -0.492490 0.485000 0.0 0.0 0.0
v -0.497996 -0.485000 0.492490 0.0 0.0 0.0
v -0.496050 -0.492173 0.492173 0.0 0.0 0.0
v -0.500000 -0.485000 -0.485000 0.0 0.0 0.0
v -0.485000 -0.485000 -0.500000 0.0 0.0 0.0
v -0.485000 -0.500000 -0.485000 0.0 0.0 0.0
v -0.497996 -0.485000 -0.492490 0.0 0.0 0.0
v -0.497996 -0.492490 -0.485000 0.0 0.0 0.0
v -0.496049 -0.492173 -0.492173 0.0 0.0 0.0
v -0.485000 -0.492490 -0.497996 0.0 0.0 0.0
v -0.492490 -0.485000 -0.497996 0.0 0.0 0.0
v -0.492173 -0.492173 -0.496049 0.0 0.0 0.0
v -0.492490 -0.497996 -0.485000 0.0 0.0 0.0
v -0.485000 -0.497996 -0.492490 0.0 0.0 0.0
v -0.492173 -0.496050 -0.492173 0.0 0.0 0.0
v -0.500000 0.370293 0.494037 0.0 0.0 0.0
v -0.485000 0.325000 0.500000 0.0 0.0 0.0
v -0.497990 0.347647 0.497018 0.0 0.0 0.0
v -0.492500 0.331068 0.499201 0.0 0.0 0.0
v -0.485000 0.325000 -0.500000 0.0 0.0 0.0
v -0.500000 0.370293 -0.494037 0.0 0.0 0.0
v -0.492500 0.331068 -0.499201 0.0 0.0 0.0
v -0.497990 0.347646 -0.497019 0.0 0.0 0.0
v 0.325000 -0.485000 0.500000 0.0 0.0 0.0
v 0.370293 -0.500000 0.494037 0.0 0.0 0.0
v 0.331068 -0.492500 0.499201 0.0 0.0 0.0
v 0.347647 -0.497990 0.497019 0.0 0.0 0.0
v 0.370293 -0.500000 -0.494037 0.0 0.0 0.0
v 0.325000 -0.485000 -0.500000 0.0 0.0 0.0
v 0.347647 -0.497990 -0.497018 0.0 0.0 0.0
v 0.331068 -0.492500 -0.499201 0.0 0.0 0.0
vn 1.0000 -0.0000 -0.0000
vn -0.0000 -0.0000 -1.0000
vn -0.0000 1.0000 -0.0000
vn -0.0000 -0.0000 1.0000
vn 0.0001 -0.0000 -1.0000
vn -0.0000 0.3827 0.9239
vn -0.0000 0.6088 0.7934
vn -0.0000 0.7933 0.6088
vn -0.0000 0.9239 0.3827
vn -0.0000 0.9914 0.1305
vn -0.0000 -0.0001 -1.0000
vn -0.0000 0.3827 -0.9239
vn -0.0000 0.6088 -0.7934
vn -0.0000 0.7934 -0.6087
vn -0.0000 0.9239 -0.3827
vn -0.0000 0.9914 -0.1305
vn 0.3827 -0.0000 0.9239
vn 0.6087 -0.0000 0.7934
vn 0.7934 -0.0000 0.6087
vn 0.9239 -0.0000 0.3827
vn 0.9914 -0.0000 0.1305
vn 0.3827 -0.0000 -0.9239
vn 0.6088 -0.0000 -0.7934
vn 0.7933 -0.0000 -0.6088
vn 0.9239 -0.0000 -0.3827
vn 0.9914 -0.0000 -0.1305
vn -0.2502 -0.9353 0.2502
vn -0.2178 -0.6901 0.6901
vn -0.2502 -0.2502 0.9353
vn -0.6901 -0.2177 0.6902
vn -0.9353 -0.2502 0.2502
vn -0.6902 -0.6901 0.2177
vn -0.5773 -0.5775 0.5773
vn -0.9353 -0.2502 -0.2502
vn -0.6901 -0.2178 -0.6901
vn -0.2502 -0.2502 -0.9353
vn -0.2178 -0.6903 -0.6900
vn -0.2502 -0.9353 -0.2502
vn -0.6901 -0.6901 -0.2177
vn -0.5774 -0.5773 -0.5774
vn -0.2585 -0.9660 -0.0000
vn -0.7071 -0.7071 -0.0000
vn -0.9660 -0.2585 -0.0000
vn -0.8483 -0.0056 0.5295
vn -0.3825 -0.0050 0.9239
vn -0.1071 -0.0015 0.9942
vn -0.0014 -0.9660 0.2585
vn -0.0011 -0.7071 0.7071
vn -0.0000 -0.2585 0.9660
vn -0.0056 -0.8483 -0.5295
vn -0.0050 -0.3825 -0.9239
vn -0.0015 -0.1071 -0.9942
vn -0.9660 -0.0014 -0.2585
vn -0.7071 -0.0011 -0.7071
vn -0.2585 -0.0000 -0.9660
vn -0.0000 0.1305 0.9914
vn -0.0001 0.1305 0.9914
vn -0.0000 0.1305 -0.9914
vn -0.0001 0.1305 -0.9915
vn 0.0001 0.1306 -0.9914
vn -0.0000 0.6087 0.7934
vn -0.0000 0.7934 0.6088
vn 0.1305 -0.0000 0.9914
vn 0.1305 -0.0001 0.9915
vn 0.1304 -0.0002 0.9915
vn 0.1305 -0.0000 -0.9914
vn 0.1305 -0.0001 -0.9914
vn 0.6088 -0.0000 0.7934
vn 0.7934 -0.0000 -0.6088
vn -0.0000 -1.0000 -0.0000
vn -0.2635 -0.9280 0.2635
vn -0.2177 -0.6902 0.6901
vn -0.2634 -0.2634 0.9280
vn -0.6901 -0.2177 0.6901
vn -0.9280 -0.2634 0.2634
vn -0.6900 -0.6902 0.2178
vn -0.9280 -0.2635 -0.2635
vn -0.2635 -0.2635 -0.9280
vn -0.2177 -0.6902 -0.6901
vn -0.2634 -0.9280 -0.2634
vn -0.6902 -0.6900 -0.2178
vn -0.9660 -0.0014 0.2585
vn -0.7071 -0.0011 0.7071
vn -0.2585 -0.0000 0.9660
vn -0.0056 -0.8484 0.5293
vn -0.0050 -0.3824 0.9240
vn -0.0015 -0.1071 0.9942
vn -0.0014 -0.9660 -0.2585
vn -0.0011 -0.7071 -0.7071
vn -0.0000 -0.2585 -0.9660
vn -0.8484 -0.0056 -0.5294
vn -0.3824 -0.0050 -0.9240
vn -0.1071 -0.0015 -0.9942
vn -1.0000 -0.0000 -0.0000
vt 0.581250 0.750000
vt 0.418750 1.000000
vt 0.418750 0.750000
vt 0.831250 0.503750
vt 0.628750 0.706250
vt 0.628750 0.503750
vt 0.157427 0.717573
vt 0.157427 0.500000
vt 0.581250 0.000000
vt 0.418750 0.250000
vt 0.418750 0.000000
vt 0.371250 0.503750
vt 0.168750 0.706250
vt 0.168750 0.503750
vt 0.836912 0.500502
vt 0.842573 0.500000
vt 0.146875 0.500000
vt 0.146875 0.728125
vt 0.125000 0.500000
vt 0.375000 0.012814
vt 0.396875 0.250000
vt 0.375000 0.250000
vt 0.396875 0.005861
vt 0.407427 0.250000
vt 0.407427 0.001491
vt 0.375329 0.711912
vt 0.375000 0.717573
vt 0.842573 0.717573
vt 0.853125 0.500000
vt 0.853125 0.728125
vt 0.875000 0.500000
vt 0.875000 0.737186
vt 0.625000 0.012814
vt 0.603125 0.250000
vt 0.603125 0.005861
vt 0.592573 0.250000
vt 0.592573 0.001491
vt 0.581250 0.250000
vt 0.625000 0.717573
vt 0.375000 0.728125
vt 0.375000 0.750000
vt 0.137814 0.750000
vt 0.375000 0.987186
vt 0.396875 0.750000
vt 0.396875 0.994139
vt 0.407427 0.750000
vt 0.407427 0.998509
vt 0.581250 1.000000
vt 0.625000 0.728125
vt 0.625000 0.750000
vt 0.625000 0.987186
vt 0.603125 0.750000
vt 0.603125 0.994139
vt 0.592573 0.750000
vt 0.592573 0.998509
vt 0.623509 0.717573
vt 0.619139 0.728125
vt 0.376877 0.503750
vt 0.378750 0.501877
vt 0.378750 0.503750
vt 0.373123 0.503750
vt 0.376957 0.501957
vt 0.371250 0.501877
vt 0.373043 0.500000
vt 0.373043 0.501957
vt 0.378750 0.498122
vt 0.375000 0.496250
vt 0.378750 0.496250
vt 0.375000 0.498043
vt 0.374012 0.501957
vt 0.623123 0.496250
vt 0.621250 0.498123
vt 0.621250 0.496250
vt 0.625000 0.496250
vt 0.623043 0.498043
vt 0.626877 0.503750
vt 0.628750 0.500000
vt 0.623043 0.501957
vt 0.626957 0.500000
vt 0.621250 0.501877
vt 0.623123 0.503750
vt 0.621250 0.503750
vt 0.625000 0.498043
vt 0.623043 0.499012
vt 0.375000 0.293750
vt 0.376491 0.282427
vt 0.371250 0.500000
vt 0.167233 0.501875
vt 0.168750 0.500000
vt 0.373125 0.707767
vt 0.371250 0.706250
vt 0.624671 0.711912
vt 0.626875 0.707767
vt 0.624255 0.288088
vt 0.625000 0.293750
vt 0.380861 0.271875
vt 0.831250 0.706250
vt 0.163088 0.500502
vt 0.832767 0.501875
vt 0.125000 0.737186
vt 0.625000 0.250000
vt 0.862186 0.750000
vt 0.612186 0.737186
vt 0.603125 0.744139
vt 0.592573 0.748509
vt 0.407427 0.748509
vt 0.387814 0.737186
vt 0.396875 0.744139
vt 0.376491 0.717573
vt 0.380861 0.728125
vt 0.623509 0.282427
vt 0.831250 0.500000
vt 0.387814 0.262814
vt 0.396875 0.255861
vt 0.407427 0.251491
vt 0.592573 0.251491
vt 0.612186 0.262814
vt 0.603125 0.255861
vt 0.619139 0.271875
s 0
f 33/1/1 2/2/1 27/3/1
f 67/4/2 76/5/2 52/6/2
f 3/7/2 16/8/2 63/8/2
f 9/9/3 15/10/3 2/11/3
f 40/12/4 1/13/4 64/14/4
f 70/15/5 68/16/2 26/16/2
f 3/7/6 17/17/6 16/8/6
f 4/18/7 18/19/7 17/17/7
f 5/20/8 19/21/8 18/22/8
f 6/23/9 20/24/9 19/21/9
f 7/25/10 15/10/10 20/24/10
f 74/26/11 72/27/2 32/27/11
f 10/28/12 25/29/12 11/30/12
f 11/30/13 24/31/13 12/32/13
f 12/33/14 23/34/14 13/35/14
f 13/35/15 22/36/15 14/37/15
f 14/37/16 21/38/16 9/9/16
f 10/28/2 34/39/2 75/39/2
f 3/7/17 31/40/17 4/18/17
f 4/18/18 30/41/18 5/42/18
f 5/43/19 29/44/19 6/45/19
f 6/45/20 28/46/20 7/47/20
f 7/47/21 27/3/21 2/2/21
f 33/1/1 9/48/1 2/2/1
f 10/28/22 35/49/22 34/39/22
f 11/30/23 36/50/23 35/49/23
f 12/51/24 37/52/24 36/50/24
f 13/53/25 38/54/25 37/52/25
f 14/55/26 33/1/26 38/54/26
f 75/56/2 34/56/2 35/57/11
f 42/58/27 43/59/27 39/60/27
f 46/61/28 44/62/28 42/58/28
f 45/63/29 46/61/29 40/12/29
f 45/63/30 50/64/30 47/65/30
f 48/66/31 49/67/31 41/68/31
f 43/59/32 50/69/32 48/66/32
f 44/70/33 47/65/33 50/64/33
f 54/71/34 55/72/34 51/73/34
f 58/74/35 56/75/35 54/71/35
f 57/76/36 58/77/36 52/6/36
f 57/76/37 62/78/37 59/79/37
f 60/80/38 61/81/38 53/82/38
f 55/72/39 62/78/39 60/80/39
f 56/75/40 59/83/40 62/84/40
f 39/60/41 60/80/41 53/82/41
f 43/59/42 55/72/42 60/80/42
f 48/66/43 51/73/43 55/72/43
f 41/68/44 65/85/44 63/86/44
f 49/87/45 66/88/45 65/89/45
f 45/63/46 64/14/46 66/88/46
f 39/60/47 74/26/47 42/58/47
f 42/58/48 73/90/48 46/61/48
f 46/61/49 71/91/49 40/12/49
f 53/82/50 77/92/50 75/56/50
f 61/81/51 78/93/51 77/92/51
f 57/76/52 76/5/52 78/93/52
f 51/73/53 70/94/53 54/71/53
f 54/71/54 69/95/54 58/74/54
f 58/77/55 67/4/55 52/6/55
f 63/86/2 16/86/5 17/96/2
f 67/4/2 8/97/2 76/5/2
f 65/98/56 66/88/56 64/14/56
f 64/14/56 1/13/56 63/8/56
f 1/13/56 3/7/56 63/8/56
f 65/98/57 64/14/57 63/8/57
f 9/9/3 21/38/3 15/10/3
f 40/12/4 71/91/4 1/13/4
f 10/28/58 8/97/58 26/16/58
f 8/97/58 67/4/58 26/16/58
f 67/4/59 69/99/59 70/15/59
f 67/4/60 70/15/60 26/16/60
f 3/7/6 4/18/6 17/17/6
f 4/18/61 5/100/61 18/19/61
f 5/20/62 6/23/62 19/21/62
f 6/23/9 7/25/9 20/24/9
f 7/25/10 2/11/10 15/10/10
f 3/7/63 1/13/63 32/27/63
f 1/13/63 71/91/63 32/27/63
f 71/91/64 73/90/64 74/26/64
f 71/91/65 74/26/65 32/27/65
f 10/28/12 26/16/12 25/29/12
f 11/30/13 25/29/13 24/31/13
f 12/33/14 24/101/14 23/34/14
f 13/35/15 23/34/15 22/36/15
f 14/37/16 22/36/16 21/38/16
f 77/92/66 78/93/66 76/5/66
f 76/5/66 8/97/66 75/39/66
f 8/97/66 10/28/66 75/39/66
f 77/92/67 76/5/67 75/39/67
f 3/7/17 32/27/17 31/40/17
f 4/18/68 31/40/68 30/41/68
f 5/43/19 30/41/19 29/44/19
f 6/45/20 29/44/20 28/46/20
f 7/47/21 28/46/21 27/3/21
f 10/28/22 11/30/22 35/49/22
f 11/30/23 12/102/23 36/50/23
f 12/51/69 13/53/69 37/52/69
f 13/53/25 14/55/25 38/54/25
f 14/55/26 9/48/26 33/1/26
f 35/57/70 36/103/70 33/1/70
f 36/103/70 37/104/70 33/1/70
f 37/104/70 38/105/70 33/1/70
f 33/1/70 27/3/70 39/60/70
f 27/3/70 28/106/70 30/107/70
f 28/106/70 29/108/70 30/107/70
f 27/3/70 30/107/70 32/109/70
f 35/57/70 33/1/70 75/56/70
f 27/3/70 32/109/70 39/60/70
f 30/107/70 31/110/70 32/109/70
f 32/109/2 72/109/2 39/60/2
f 75/56/70 33/1/70 53/82/70
f 33/1/70 39/60/70 53/82/70
f 42/58/71 44/62/71 43/59/71
f 46/61/72 47/65/72 44/62/72
f 45/63/73 47/65/73 46/61/73
f 45/63/74 49/87/74 50/64/74
f 48/66/75 50/69/75 49/67/75
f 43/59/76 44/62/76 50/69/76
f 54/71/77 56/75/77 55/72/77
f 58/74/35 59/83/35 56/75/35
f 57/76/78 59/79/78 58/77/78
f 57/76/79 61/81/79 62/78/79
f 60/80/80 62/78/80 61/81/80
f 55/72/81 56/75/81 62/78/81
f 39/60/41 43/59/41 60/80/41
f 43/59/42 48/66/42 55/72/42
f 48/66/43 41/68/43 51/73/43
f 41/68/82 49/67/82 65/85/82
f 49/87/83 45/63/83 66/88/83
f 45/63/84 40/12/84 64/14/84
f 39/60/85 72/109/85 74/26/85
f 42/58/86 74/26/86 73/90/86
f 46/61/87 73/90/87 71/91/87
f 53/82/88 61/81/88 77/92/88
f 61/81/89 57/76/89 78/93/89
f 57/76/90 52/6/90 76/5/90
f 51/73/91 68/111/91 70/94/91
f 54/71/92 70/94/92 69/95/92
f 58/77/93 69/112/93 67/4/93
f 17/96/94 18/113/94 15/10/94
f 18/113/94 19/114/94 15/10/94
f 19/114/94 20/115/94 15/10/94
f 15/10/94 21/38/94 51/73/94
f 21/38/94 22/116/94 24/117/94
f 22/116/94 23/118/94 24/117/94
f 21/38/94 24/117/94 26/111/94
f 17/96/94 15/10/94 63/86/94
f 21/38/94 26/111/94 51/73/94
f 24/117/94 25/119/94 26/111/94
f 26/111/2 68/111/2 51/73/2
f 63/86/94 15/10/94 41/68/94
f 15/10/94 51/73/94 41/68/94
o Plane
v 0.480000 -0.501000 -0.312000
v 0.477932 -0.501000 -0.338281
v 0.471777 -0.501000 -0.363915
v 0.461689 -0.501000 -0.388270
v 0.447915 -0.501000 -0.410748
v 0.430794 -0.501000 -0.430794
v 0.410748 -0.501000 -0.447915
v 0.388270 -0.501000 -0.461689
v 0.363915 -0.501000 -0.471778
v 0.338281 -0.501000 -0.477932
v 0.480000 -0.501000 0.312000
v 0.338281 -0.501000 0.477932
v 0.363915 -0.501000 0.471777
v 0.388270 -0.501000 0.461689
v 0.410748 -0.501000 0.447915
v 0.430794 -0.501000 0.430794
v 0.447915 -0.501000 0.410748
v 0.461689 -0.501000 0.388270
v 0.471778 -0.501000 0.363915
v 0.477932 -0.501000 0.338281
v -0.465600 -0.501000 -0.480000
v -0.480000 -0.501000 -0.465600
v -0.467853 -0.501000 -0.479823
v -0.470050 -0.501000 -0.479295
v -0.472138 -0.501000 -0.478430
v -0.474064 -0.501000 -0.477250
v -0.475782 -0.501000 -0.475782
v -0.477250 -0.501000 -0.474064
v -0.478431 -0.501000 -0.472137
v -0.479295 -0.501000 -0.470050
v -0.479823 -0.501000 -0.467853
v -0.465600 -0.501000 0.480000
v -0.480000 -0.501000 0.465600
v -0.467853 -0.501000 0.479823
v -0.470050 -0.501000 0.479295
v -0.472137 -0.501000 0.478431
v -0.474064 -0.501000 0.477250
v -0.475782 -0.501000 0.475782
v -0.477250 -0.501000 0.474064
v -0.478431 -0.501000 0.472138
v -0.479295 -0.501000 0.470050
v -0.479823 -0.501000 0.467853
v 0.326356 -0.501000 -0.478870
v 0.297600 -0.501000 -0.480000
v 0.323933 -0.501000 -0.479047
v 0.321215 -0.501000 -0.479219
v 0.318269 -0.501000 -0.479383
v 0.315167 -0.501000 -0.479534
v 0.311987 -0.501000 -0.479669
v 0.308806 -0.501000 -0.479784
v 0.305702 -0.501000 -0.479877
v 0.302752 -0.501000 -0.479945
v 0.300029 -0.501000 -0.479986
v 0.297600 -0.501000 0.480000
v 0.326356 -0.501000 0.478870
v 0.300029 -0.501000 0.479986
v 0.302752 -0.501000 0.479945
v 0.305702 -0.501000 0.479877
v 0.308806 -0.501000 0.479784
v 0.311987 -0.501000 0.479669
v 0.315167 -0.501000 0.479534
v 0.318269 -0.501000 0.479383
v 0.321215 -0.501000 0.479219
v 0.323933 -0.501000 0.479047
vn -0.0000 -1.0000 -0.0000
vn -0.0000 -1.0000 -0.0001
vn -0.0000 -1.0000 -0.0002
vn -0.0000 -1.0000 0.0002
vn -0.0000 -1.0000 0.0001
vt 0.010365 0.999266
vt 0.002865 0.993817
vt 0.000000 0.985000
vt 0.000000 0.190000
vt 0.015000 1.000000
vt 0.000014 0.187469
vt 0.175000 0.000000
vt 1.000000 0.190000
vt 0.825000 0.000000
vt 0.000058 0.184633
vt 0.000128 0.181560
vt 0.000225 0.178327
vt 0.000345 0.175014
vt 0.000485 0.171701
vt 0.000643 0.168470
vt 0.000813 0.165401
vt 0.000993 0.162570
vt 0.147624 0.002155
vt 0.001177 0.160046
vt 0.051256 0.051256
vt 0.002155 0.147624
vt 0.008565 0.120922
vt 0.019074 0.095552
vt 0.033422 0.072138
vt 0.072138 0.033422
vt 0.095552 0.019074
vt 0.120922 0.008565
vt 0.852376 0.002155
vt 0.998823 0.160046
vt 0.879078 0.008565
vt 0.904448 0.019074
vt 0.927862 0.033422
vt 0.948744 0.051256
vt 0.966578 0.072138
vt 0.980926 0.095552
vt 0.991435 0.120922
vt 0.997845 0.147624
vt 0.999007 0.162570
vt 0.999187 0.165401
vt 0.999357 0.168470
vt 0.999515 0.171701
vt 0.999655 0.175014
vt 0.999775 0.178327
vt 0.999872 0.181560
vt 0.999942 0.184633
vt 0.999986 0.187469
vt 1.000000 0.985000
vt 0.985000 1.000000
vt 0.999815 0.987347
vt 0.995607 0.995607
vt 0.999266 0.989635
vt 0.998365 0.991810
vt 0.997135 0.993817
vt 0.993817 0.997135
vt 0.987347 0.999815
vt 0.991810 0.998365
vt 0.989635 0.999266
vt 0.012653 0.999815
vt 0.008190 0.998365
vt 0.006183 0.997135
vt 0.004393 0.995607
vt 0.001635 0.991810
vt 0.000734 0.989635
vt 0.000185 0.987347
s 0
f 108/120/95 104/121/95 99/122/95
f 99/122/95 122/123/95 100/124/95
f 122/123/95 131/125/95 79/126/95
f 132/127/95 122/123/95 89/128/95
f 131/125/95 130/129/95 79/126/95
f 130/129/95 129/130/95 79/126/95
f 129/130/95 128/131/95 79/126/95
f 128/131/95 127/132/95 79/126/95
f 127/132/96 126/133/96 79/126/96
f 126/133/95 125/134/95 79/126/95
f 125/134/95 124/135/95 79/126/95
f 124/135/95 123/136/95 79/126/95
f 79/126/95 123/136/95 80/137/95
f 123/136/95 121/138/95 84/139/95
f 121/138/97 88/140/97 87/141/97
f 87/141/95 86/142/95 121/138/95
f 121/138/95 86/142/95 85/143/95
f 85/143/95 84/139/95 121/138/95
f 84/139/95 83/144/95 123/136/95
f 83/144/95 82/145/95 123/136/95
f 82/145/95 81/146/95 123/136/95
f 81/146/95 80/137/95 123/136/95
f 79/126/95 89/128/95 122/123/95
f 89/128/95 98/147/95 133/148/95
f 98/147/95 97/149/95 133/148/95
f 97/149/95 96/150/95 133/148/95
f 96/150/95 95/151/95 133/148/95
f 95/151/95 94/152/95 133/148/95
f 94/152/95 93/153/95 133/148/95
f 93/153/95 92/154/95 133/148/95
f 92/154/95 91/155/95 133/148/95
f 91/155/98 90/156/98 133/148/98
f 133/148/95 142/157/95 89/128/95
f 142/157/95 141/158/95 89/128/95
f 141/158/95 140/159/95 89/128/95
f 140/159/95 139/160/95 89/128/95
f 139/160/95 138/161/95 89/128/95
f 138/161/95 137/162/95 89/128/95
f 137/162/95 136/163/95 89/128/95
f 136/163/95 135/164/95 89/128/95
f 135/164/95 134/165/95 89/128/95
f 134/165/95 132/127/95 89/128/95
f 132/127/95 110/166/95 111/167/95
f 110/166/95 112/168/95 116/169/95
f 112/168/95 113/170/95 114/171/95
f 114/171/95 115/172/95 112/168/95
f 115/172/95 116/169/95 112/168/95
f 116/169/96 117/173/96 120/174/96
f 117/173/98 118/175/98 120/174/98
f 118/175/99 119/176/99 120/174/99
f 120/174/95 111/167/95 110/166/95
f 111/167/95 100/124/95 132/127/95
f 100/124/99 109/177/99 108/120/99
f 108/120/95 107/178/95 106/179/95
f 106/179/95 105/180/95 108/120/95
f 105/180/95 104/121/95 108/120/95
f 104/121/99 103/181/99 102/182/99
f 102/182/95 101/183/95 104/121/95
f 101/183/99 99/122/99 104/121/99
f 122/123/95 132/127/95 100/124/95
f 100/124/99 108/120/99 99/122/99
f 110/166/95 116/169/95 120/174/95
o Plane2
v -0.501000 0.480000 -0.312000
v -0.501000 0.477932 -0.338281
v -0.501000 0.471777 -0.363915
v -0.501000 0.461689 -0.388271
v -0.501000 0.447915 -0.410748
v -0.501000 0.430794 -0.430794
v -0.501000 0.410748 -0.447915
v -0.501000 0.388270 -0.461689
v -0.501000 0.363915 -0.471778
v -0.501000 0.338281 -0.477932
v -0.501000 0.480000 0.312000
v -0.501000 0.338281 0.477932
v -0.501000 0.363915 0.471777
v -0.501000 0.388271 0.461689
v -0.501000 0.410748 0.447915
v -0.501000 0.430794 0.430794
v -0.501000 0.447915 0.410748
v -0.501000 0.461689 0.388270
v -0.501000 0.471778 0.363915
v -0.501000 0.477932 0.338281
v -0.501000 -0.465600 -0.480000
v -0.501000 -0.480000 -0.465600
v -0.501000 -0.467853 -0.479823
v -0.501000 -0.470050 -0.479295
v -0.501000 -0.472138 -0.478430
v -0.501000 -0.474064 -0.477250
v -0.501000 -0.475783 -0.475782
v -0.501000 -0.477250 -0.474064
v -0.501000 -0.478431 -0.472137
v -0.501000 -0.479295 -0.470050
v -0.501000 -0.479823 -0.467853
v -0.501000 -0.465600 0.480000
v -0.501000 -0.480000 0.465600
v -0.501000 -0.467853 0.479823
v -0.501000 -0.470050 0.479295
v -0.501000 -0.472137 0.478431
v -0.501000 -0.474064 0.477250
v -0.501000 -0.475782 0.475783
v -0.501000 -0.477250 0.474064
v -0.501000 -0.478430 0.472138
v -0.501000 -0.479295 0.470050
v -0.501000 -0.479823 0.467853
v -0.501000 0.326355 -0.478870
v -0.501000 0.297600 -0.480000
v -0.501000 0.323932 -0.479047
v -0.501000 0.321215 -0.479219
v -0.501000 0.318269 -0.479383
v -0.501000 0.315167 -0.479534
v -0.501000 0.311987 -0.479669
v -0.501000 0.308806 -0.479784
v -0.501000 0.305702 -0.479877
v -0.501000 0.302752 -0.479945
v -0.501000 0.300029 -0.479986
v -0.501000 0.297600 0.480000
v -0.501000 0.326356 0.478870
v -0.501000 0.300030 0.479986
v -0.501000 0.302753 0.479945
v -0.501000 0.305702 0.479877
v -0.501000 0.308806 0.479784
v -0.501000 0.311987 0.479669
v -0.501000 0.315168 0.479534
v -0.501000 0.318269 0.479383
v -0.501000 0.321215 0.479219
v -0.501000 0.323933 0.479047
vn 1.0000 -0.0000 -0.0000
vn 1.0000 -0.0001 -0.0000
vn 1.0000 0.0001 -0.0000
vn 1.0000 -0.0002 -0.0000
vt 0.010365 0.999266
vt 0.002865 0.993817
vt 0.000000 0.985000
vt 0.000000 0.190000
vt 0.015000 1.000000
vt 0.000014 0.187469
vt 0.175000 0.000000
vt 1.000000 0.190000
vt 0.825000 0.000000
vt 0.000058 0.184633
vt 0.000128 0.181560
vt 0.000225 0.178327
vt 0.000345 0.175014
vt 0.000485 0.171701
vt 0.000643 0.168470
vt 0.000813 0.165401
vt 0.000993 0.162570
vt 0.147624 0.002155
vt 0.001177 0.160046
vt 0.051256 0.051256
vt 0.002155 0.147624
vt 0.008565 0.120922
vt 0.019074 0.095552
vt 0.033422 0.072138
vt 0.072138 0.033422
vt 0.095552 0.019074
vt 0.120922 0.008565
vt 0.852376 0.002155
vt 0.998823 0.160046
vt 0.879078 0.008565
vt 0.904448 0.019074
vt 0.927862 0.033422
vt 0.948744 0.051256
vt 0.966578 0.072138
vt 0.980926 0.095552
vt 0.991435 0.120922
vt 0.997845 0.147624
vt 0.999007 0.162570
vt 0.999187 0.165401
vt 0.999357 0.168470
vt 0.999515 0.171701
vt 0.999655 0.175014
vt 0.999775 0.178327
vt 0.999872 0.181560
vt 0.999942 0.184633
vt 0.999986 0.187469
vt 1.000000 0.985000
vt 0.985000 1.000000
vt 0.999815 0.987347
vt 0.995607 0.995607
vt 0.999266 0.989635
vt 0.998365 0.991810
vt 0.997135 0.993817
vt 0.993817 0.997135
vt 0.987347 0.999815
vt 0.991810 0.998365
vt 0.989635 0.999266
vt 0.012653 0.999815
vt 0.008190 0.998365
vt 0.006183 0.997135
vt 0.004393 0.995607
vt 0.001635 0.991810
vt 0.000734 0.989635
vt 0.000185 0.987347
s 0
f 172/184/100 168/185/100 163/186/100
f 163/186/100 186/187/100 164/188/100
f 186/187/100 195/189/100 143/190/100
f 196/191/100 186/187/100 153/192/100
f 195/189/100 194/193/100 143/190/100
f 194/193/100 193/194/100 143/190/100
f 193/194/100 192/195/100 143/190/100
f 192/195/101 191/196/101 143/190/101
f 191/196/102 190/197/102 143/190/102
f 190/197/100 189/198/100 143/190/100
f 189/198/100 188/199/100 143/190/100
f 188/199/100 187/200/100 143/190/100
f 143/190/100 187/200/100 144/201/100
f 187/200/100 185/202/100 148/203/100
f 185/202/100 152/204/100 151/205/100
f 151/205/100 150/206/100 185/202/100
f 185/202/100 150/206/100 149/207/100
f 149/207/100 148/203/100 185/202/100
f 148/203/100 147/208/100 187/200/100
f 147/208/100 146/209/100 187/200/100
f 146/209/100 145/210/100 187/200/100
f 145/210/100 144/201/100 187/200/100
f 143/190/100 153/192/100 186/187/100
f 153/192/100 162/211/100 197/212/100
f 162/211/100 161/213/100 197/212/100
f 161/213/100 160/214/100 197/212/100
f 160/214/100 159/215/100 197/212/100
f 159/215/100 158/216/100 197/212/100
f 158/216/100 157/217/100 197/212/100
f 157/217/100 156/218/100 197/212/100
f 156/218/100 155/219/100 197/212/100
f 155/219/100 154/220/100 197/212/100
f 197/212/103 206/221/103 153/192/103
f 206/221/100 205/222/100 153/192/100
f 205/222/100 204/223/100 153/192/100
f 204/223/100 203/224/100 153/192/100
f 203/224/102 202/225/102 153/192/102
f 202/225/101 201/226/101 153/192/101
f 201/226/100 200/227/100 153/192/100
f 200/227/100 199/228/100 153/192/100
f 199/228/100 198/229/100 153/192/100
f 198/229/100 196/191/100 153/192/100
f 196/191/100 174/230/100 175/231/100
f 174/230/100 176/232/100 180/233/100
f 176/232/100 177/234/100 178/235/100
f 178/235/103 179/236/103 176/232/103
f 179/236/100 180/233/100 176/232/100
f 180/233/100 181/237/100 184/238/100
f 181/237/100 182/239/100 184/238/100
f 182/239/100 183/240/100 184/238/100
f 184/238/101 175/231/101 174/230/101
f 175/231/100 164/188/100 196/191/100
f 164/188/100 173/241/100 172/184/100
f 172/184/101 171/242/101 170/243/101
f 170/243/100 169/244/100 172/184/100
f 169/244/100 168/185/100 172/184/100
f 168/185/103 167/245/103 166/246/103
f 166/246/103 165/247/103 168/185/103
f 165/247/100 163/186/100 168/185/100
f 186/187/100 196/191/100 164/188/100
f 164/188/100 172/184/100 163/186/100
f 174/230/100 180/233/100 184/238/100
