# Blender 3.6.15
# www.blender.org
mtllib edge_yellowBlue.mtl
o Cube
v -0.500000 0.325000 0.325000 0.0 0.0 0.0
v -0.325000 0.500000 0.500000 0.0 0.0 0.0
v -0.494037 0.370293 0.370293 0.0 0.0 0.0
v -0.476554 0.412500 0.412500 0.0 0.0 0.0
v -0.448744 0.448744 0.448744 0.0 0.0 0.0
v -0.412500 0.476555 0.476554 0.0 0.0 0.0
v -0.370293 0.494037 0.494037 0.0 0.0 0.0
v 0.500000 0.325000 0.325000 0.0 0.0 0.0
v 0.325000 0.500000 0.500000 0.0 0.0 0.0
v 0.494037 0.370293 0.370293 0.0 0.0 0.0
v 0.476554 0.412500 0.412500 0.0 0.0 0.0
v 0.448744 0.448744 0.448744 0.0 0.0 0.0
v 0.412500 0.476554 0.476554 0.0 0.0 0.0
v 0.370293 0.494037 0.494037 0.0 0.0 0.0
v -0.325000 0.500000 -0.500000 0.0 0.0 0.0
v -0.494037 0.370293 -0.500000 0.0 0.0 0.0
v -0.476554 0.412500 -0.500000 0.0 0.0 0.0
v -0.448744 0.448744 -0.500000 0.0 0.0 0.0
v -0.412500 0.476555 -0.500000 0.0 0.0 0.0
v -0.370293 0.494037 -0.500000 0.0 0.0 0.0
v 0.325000 0.500000 -0.500000 0.0 0.0 0.0
v 0.370293 0.494037 -0.500000 0.0 0.0 0.0
v 0.412500 0.476554 -0.500000 0.0 0.0 0.0
v 0.448744 0.448744 -0.500000 0.0 0.0 0.0
v 0.476554 0.412500 -0.500000 0.0 0.0 0.0
v 0.494037 0.370293 -0.500000 0.0 0.0 0.0
v -0.325000 -0.500000 0.500000 0.0 0.0 0.0
v -0.370293 -0.500000 0.494037 0.0 0.0 0.0
v -0.412500 -0.500000 0.476554 0.0 0.0 0.0
v -0.448744 -0.500000 0.448744 0.0 0.0 0.0
v -0.476554 -0.500000 0.412500 0.0 0.0 0.0
v -0.494037 -0.500000 0.370293 0.0 0.0 0.0
v 0.325000 -0.500000 0.500000 0.0 0.0 0.0
v 0.494037 -0.500000 0.370293 0.0 0.0 0.0
v 0.476554 -0.500000 0.412500 0.0 0.0 0.0
v 0.448744 -0.500000 0.448744 0.0 0.0 0.0
v 0.412500 -0.500000 0.476554 0.0 0.0 0.0
v 0.370293 -0.500000 0.494037 0.0 0.0 0.0
v -0.485000 -0.500000 -0.485000 0.0 0.0 0.0
v -0.500000 -0.485000 -0.485000 0.0 0.0 0.0
v -0.485000 -0.485000 -0.500000 0.0 0.0 0.0
v -0.492490 -0.497996 -0.485000 0.0 0.0 0.0
v -0.485000 -0.497996 -0.492490 0.0 0.0 0.0
v -0.492173 -0.496049 -0.492173 0.0 0.0 0.0
v -0.497996 -0.485000 -0.492490 0.0 0.0 0.0
v -0.497996 -0.492490 -0.485000 0.0 0.0 0.0
v -0.496050 -0.492173 -0.492173 0.0 0.0 0.0
v -0.485000 -0.492490 -0.497996 0.0 0.0 0.0
v -0.492490 -0.485000 -0.497996 0.0 0.0 0.0
v -0.492173 -0.492173 -0.496050 0.0 0.0 0.0
v 0.485000 -0.485000 -0.500000 0.0 0.0 0.0
v 0.500000 -0.485000 -0.485000 0.0 0.0 0.0
v 0.485000 -0.500000 -0.485000 0.0 0.0 0.0
v 0.492490 -0.485000 -0.497996 0.0 0.0 0.0
v 0.485000 -0.492490 -0.497996 0.0 0.0 0.0
v 0.492173 -0.492173 -0.496050 0.0 0.0 0.0
v 0.497996 -0.492490 -0.485000 0.0 0.0 0.0
v 0.497996 -0.485000 -0.492490 0.0 0.0 0.0
v 0.496049 -0.492173 -0.492173 0.0 0.0 0.0
v 0.485000 -0.497996 -0.492490 0.0 0.0 0.0
v 0.492490 -0.497996 -0.485000 0.0 0.0 0.0
v 0.492173 -0.496050 -0.492173 0.0 0.0 0.0
v -0.494037 0.370293 -0.500000 0.0 0.0 0.0
v -0.500000 0.325000 -0.485000 0.0 0.0 0.0
v -0.497018 0.347647 -0.497990 0.0 0.0 0.0
v -0.499201 0.331068 -0.492500 0.0 0.0 0.0
v 0.500000 0.325000 -0.485000 0.0 0.0 0.0
v 0.494037 0.370293 -0.500000 0.0 0.0 0.0
v 0.499201 0.331068 -0.492500 0.0 0.0 0.0
v 0.497019 0.347647 -0.497990 0.0 0.0 0.0
v -0.500000 -0.485000 0.325000 0.0 0.0 0.0
v -0.494037 -0.500000 0.370293 0.0 0.0 0.0
v -0.499201 -0.492500 0.331068 0.0 0.0 0.0
v -0.497019 -0.497990 0.347647 0.0 0.0 0.0
v 0.494037 -0.500000 0.370293 0.0 0.0 0.0
v 0.500000 -0.485000 0.325000 0.0 0.0 0.0
v 0.497018 -0.497990 0.347647 0.0 0.0 0.0
v 0.499201 -0.492500 0.331068 0.0 0.0 0.0
vn -0.0000 -0.0000 1.0000
vn 1.0000 -0.0000 -0.0000
vn -0.0000 -0.0000 -0.0000
vn -0.0000 1.0000 -0.0000
vn -1.0000 -0.0000 -0.0000
vn 1.0000 -0.0001 -0.0000
vn -0.9239 0.3827 -0.0000
vn -0.7934 0.6087 -0.0000
vn -0.6088 0.7934 -0.0000
vn -0.3827 0.9239 -0.0000
vn -0.1305 0.9914 -0.0000
vn -0.0000 -0.0000 -1.0000
vn 0.9239 0.3827 -0.0000
vn 0.7934 0.6087 -0.0000
vn 0.6087 0.7934 -0.0000
vn 0.3827 0.9239 -0.0000
vn 0.1305 0.9914 -0.0000
vn -0.9239 -0.0000 0.3827
vn -0.7934 -0.0000 0.6087
vn -0.6087 -0.0000 0.7934
vn -0.3827 -0.0000 0.9239
vn -0.1305 -0.0000 0.9914
vn 0.9239 -0.0000 0.3827
vn 0.7934 -0.0000 0.6087
vn 0.6087 -0.0000 0.7934
vn 0.3827 -0.0000 0.9239
vn 0.1305 -0.0000 0.9914
vn -0.2502 -0.9353 -0.2502
vn -0.6901 -0.6901 -0.2178
vn -0.9353 -0.2502 -0.2502
vn -0.6902 -0.2177 -0.6901
vn -0.2502 -0.2502 -0.9353
vn -0.2177 -0.6901 -0.6901
vn -0.5773 -0.5774 -0.5773
vn 0.2502 -0.2502 -0.9353
vn 0.6901 -0.2177 -0.6902
vn 0.9353 -0.2502 -0.2502
vn 0.6902 -0.6900 -0.2179
vn 0.2502 -0.9353 -0.2502
vn 0.2177 -0.6902 -0.6901
vn 0.5774 -0.5773 -0.5773
vn -0.0000 -0.9660 -0.2585
vn -0.0000 -0.7071 -0.7071
vn -0.0000 -0.2585 -0.9660
vn -0.5295 -0.0056 -0.8483
vn -0.9239 -0.0050 -0.3825
vn -0.9942 -0.0015 -0.1071
vn -0.2585 -0.9660 -0.0014
vn -0.7071 -0.7071 -0.0011
vn -0.9660 -0.2585 -0.0000
vn 0.5295 -0.8483 -0.0056
vn 0.9239 -0.3825 -0.0050
vn 0.9942 -0.1071 -0.0015
vn 0.2585 -0.0014 -0.9660
vn 0.7071 -0.0011 -0.7071
vn 0.9660 -0.0000 -0.2585
vn 1.0000 0.0001 -0.0000
vn -0.9914 0.1305 -0.0000
vn -0.9914 0.1305 -0.0001
vn 0.9914 0.1305 -0.0000
vn 0.9915 0.1305 -0.0001
vn 0.9915 0.1304 -0.0002
vn -0.9914 -0.0000 0.1305
vn -0.9915 -0.0001 0.1305
vn -0.9914 0.0001 0.1306
vn 0.9914 -0.0000 0.1305
vn 0.9914 -0.0001 0.1305
vn -0.0000 -1.0000 -0.0000
vn -0.2635 -0.9280 -0.2635
vn -0.6901 -0.6902 -0.2177
vn -0.9280 -0.2634 -0.2634
vn -0.6901 -0.2177 -0.6902
vn -0.2634 -0.2634 -0.9280
vn -0.2178 -0.6902 -0.6900
vn 0.2634 -0.2634 -0.9280
vn 0.6900 -0.2178 -0.6903
vn 0.9280 -0.2635 -0.2635
vn 0.6901 -0.6901 -0.2177
vn 0.2634 -0.9280 -0.2634
vn 0.2178 -0.6901 -0.6902
vn -0.2585 -0.0014 -0.9660
vn -0.7071 -0.0011 -0.7071
vn -0.9660 -0.0000 -0.2585
vn -0.5294 -0.8484 -0.0056
vn -0.9240 -0.3824 -0.0050
vn -0.9942 -0.1071 -0.0015
vn 0.2585 -0.9660 -0.0014
vn 0.7071 -0.7071 -0.0011
vn 0.9660 -0.2585 -0.0000
vn 0.5293 -0.0056 -0.8484
vn 0.9240 -0.0050 -0.3824
vn 0.9942 -0.0015 -0.1071
vt 0.581250 0.750000
vt 0.418750 1.000000
vt 0.418750 0.750000
vt 0.831250 0.503750
vt 0.628750 0.706250
vt 0.628750 0.503750
vt 0.157427 0.717573
vt 0.157427 0.500000
vt 0.581250 0.000000
vt 0.418750 0.250000
vt 0.418750 0.000000
vt 0.371250 0.503750
vt 0.168750 0.706250
vt 0.168750 0.503750
vt 0.836912 0.500502
vt 0.842573 0.500000
vt 0.146875 0.500000
vt 0.146875 0.728125
vt 0.125000 0.500000
vt 0.375000 0.012814
vt 0.396875 0.250000
vt 0.375000 0.250000
vt 0.396875 0.005861
vt 0.407427 0.250000
vt 0.407427 0.001491
vt 0.375329 0.711912
vt 0.375000 0.717573
vt 0.842573 0.717573
vt 0.853125 0.500000
vt 0.853125 0.728125
vt 0.875000 0.500000
vt 0.875000 0.737186
vt 0.625000 0.012814
vt 0.603125 0.250000
vt 0.603125 0.005861
vt 0.592573 0.250000
vt 0.592573 0.001491
vt 0.581250 0.250000
vt 0.625000 0.717573
vt 0.375000 0.728125
vt 0.375000 0.750000
vt 0.137814 0.750000
vt 0.375000 0.987186
vt 0.396875 0.750000
vt 0.396875 0.994139
vt 0.407427 0.750000
vt 0.407427 0.998509
vt 0.581250 1.000000
vt 0.625000 0.728125
vt 0.625000 0.750000
vt 0.625000 0.987186
vt 0.603125 0.750000
vt 0.603125 0.994139
vt 0.592573 0.750000
vt 0.592573 0.998509
vt 0.623509 0.717573
vt 0.619139 0.728125
vt 0.376877 0.503750
vt 0.378750 0.501877
vt 0.378750 0.503750
vt 0.373123 0.503750
vt 0.376957 0.501957
vt 0.371250 0.501877
vt 0.373043 0.500000
vt 0.373043 0.501957
vt 0.378750 0.498122
vt 0.375000 0.496250
vt 0.378750 0.496250
vt 0.375000 0.498043
vt 0.374012 0.501957
vt 0.623123 0.496250
vt 0.621250 0.498123
vt 0.621250 0.496250
vt 0.625000 0.496250
vt 0.623043 0.498043
vt 0.626877 0.503750
vt 0.628750 0.500000
vt 0.623043 0.501957
vt 0.626957 0.500000
vt 0.621250 0.501877
vt 0.623123 0.503750
vt 0.621250 0.503750
vt 0.625000 0.498043
vt 0.623043 0.499012
vt 0.375000 0.293750
vt 0.376491 0.282427
vt 0.371250 0.500000
vt 0.167233 0.501875
vt 0.168750 0.500000
vt 0.373125 0.707767
vt 0.371250 0.706250
vt 0.624671 0.711912
vt 0.626875 0.707767
vt 0.624255 0.288088
vt 0.625000 0.293750
vt 0.380861 0.271875
vt 0.831250 0.706250
vt 0.163088 0.500502
vt 0.832767 0.501875
vt 0.125000 0.737186
vt 0.625000 0.250000
vt 0.862186 0.750000
vt 0.612186 0.737186
vt 0.603125 0.744139
vt 0.592573 0.748509
vt 0.407427 0.748509
vt 0.387814 0.737186
vt 0.396875 0.744139
vt 0.376491 0.717573
vt 0.380861 0.728125
vt 0.623509 0.282427
vt 0.831250 0.500000
vt 0.387814 0.262814
vt 0.396875 0.255861
vt 0.407427 0.251491
vt 0.592573 0.251491
vt 0.612186 0.262814
vt 0.603125 0.255861
vt 0.619139 0.271875
s 0
f 33/1/1 2/2/1 27/3/1
f 67/4/2 76/5/2 52/6/2
f 3/7/2 16/8/3 63/8/1
f 9/9/4 15/10/4 2/11/4
f 40/12/5 1/13/5 64/14/5
f 70/15/6 68/16/1 26/16/2
f 3/7/7 17/17/7 16/8/7
f 4/18/8 18/19/8 17/17/8
f 5/20/9 19/21/9 18/22/9
f 6/23/10 20/24/10 19/21/10
f 7/25/11 15/10/11 20/24/11
f 74/26/2 72/27/12 32/27/2
f 10/28/13 25/29/13 11/30/13
f 11/30/14 24/31/14 12/32/14
f 12/33/15 23/34/15 13/35/15
f 13/35/16 22/36/16 14/37/16
f 14/37/17 21/38/17 9/9/17
f 10/28/2 34/39/12 75/39/2
f 3/7/18 31/40/18 4/18/18
f 4/18/19 30/41/19 5/42/19
f 5/43/20 29/44/20 6/45/20
f 6/45/21 28/46/21 7/47/21
f 7/47/22 27/3/22 2/2/22
f 33/1/1 9/48/1 2/2/1
f 10/28/23 35/49/23 34/39/23
f 11/30/24 36/50/24 35/49/24
f 12/51/25 37/52/25 36/50/25
f 13/53/26 38/54/26 37/52/26
f 14/55/27 33/1/27 38/54/27
f 75/56/12 34/56/2 35/57/2
f 42/58/28 43/59/28 39/60/28
f 46/61/29 44/62/29 42/58/29
f 45/63/30 46/61/30 40/12/30
f 45/63/31 50/64/31 47/65/31
f 48/66/32 49/67/32 41/68/32
f 43/59/33 50/69/33 48/66/33
f 44/70/34 47/65/34 50/64/34
f 54/71/35 55/72/35 51/73/35
f 58/74/36 56/75/36 54/71/36
f 57/76/37 58/77/37 52/6/37
f 57/76/38 62/78/38 59/79/38
f 60/80/39 61/81/39 53/82/39
f 55/72/40 62/78/40 60/80/40
f 56/75/41 59/83/41 62/84/41
f 39/60/42 60/80/42 53/82/42
f 43/59/43 55/72/43 60/80/43
f 48/66/44 51/73/44 55/72/44
f 41/68/45 65/85/45 63/86/45
f 49/87/46 66/88/46 65/89/46
f 45/63/47 64/14/47 66/88/47
f 39/60/48 74/26/48 42/58/48
f 42/58/49 73/90/49 46/61/49
f 46/61/50 71/91/50 40/12/50
f 53/82/51 77/92/51 75/56/51
f 61/81/52 78/93/52 77/92/52
f 57/76/53 76/5/53 78/93/53
f 51/73/54 70/94/54 54/71/54
f 54/71/55 69/95/55 58/74/55
f 58/77/56 67/4/56 52/6/56
f 63/86/12 16/86/2 17/96/57
f 67/4/2 8/97/2 76/5/2
f 65/98/58 66/88/58 64/14/58
f 64/14/58 1/13/58 63/8/58
f 1/13/58 3/7/58 63/8/58
f 65/98/59 64/14/59 63/8/59
f 9/9/4 21/38/4 15/10/4
f 40/12/5 71/91/5 1/13/5
f 10/28/60 8/97/60 26/16/60
f 8/97/60 67/4/60 26/16/60
f 67/4/61 69/99/61 70/15/61
f 67/4/62 70/15/62 26/16/62
f 3/7/7 4/18/7 17/17/7
f 4/18/8 5/100/8 18/19/8
f 5/20/9 6/23/9 19/21/9
f 6/23/10 7/25/10 20/24/10
f 7/25/11 2/11/11 15/10/11
f 3/7/63 1/13/63 32/27/63
f 1/13/63 71/91/63 32/27/63
f 71/91/64 73/90/64 74/26/64
f 71/91/65 74/26/65 32/27/65
f 10/28/13 26/16/13 25/29/13
f 11/30/14 25/29/14 24/31/14
f 12/33/15 24/101/15 23/34/15
f 13/35/16 23/34/16 22/36/16
f 14/37/17 22/36/17 21/38/17
f 77/92/66 78/93/66 76/5/66
f 76/5/66 8/97/66 75/39/66
f 8/97/66 10/28/66 75/39/66
f 77/92/67 76/5/67 75/39/67
f 3/7/18 32/27/18 31/40/18
f 4/18/19 31/40/19 30/41/19
f 5/43/20 30/41/20 29/44/20
f 6/45/21 29/44/21 28/46/21
f 7/47/22 28/46/22 27/3/22
f 10/28/23 11/30/23 35/49/23
f 11/30/24 12/102/24 36/50/24
f 12/51/25 13/53/25 37/52/25
f 13/53/26 14/55/26 38/54/26
f 14/55/27 9/48/27 33/1/27
f 35/57/68 36/103/68 33/1/68
f 36/103/68 37/104/68 33/1/68
f 37/104/68 38/105/68 33/1/68
f 33/1/68 27/3/68 39/60/68
f 27/3/68 28/106/68 30/107/68
f 28/106/68 29/108/68 30/107/68
f 27/3/68 30/107/68 32/109/68
f 35/57/68 33/1/68 75/56/68
f 27/3/68 32/109/68 39/60/68
f 30/107/68 31/110/68 32/109/68
f 32/109/3 72/109/1 39/60/3
f 75/56/68 33/1/68 53/82/68
f 33/1/68 39/60/68 53/82/68
f 42/58/69 44/62/69 43/59/69
f 46/61/70 47/65/70 44/62/70
f 45/63/71 47/65/71 46/61/71
f 45/63/72 49/87/72 50/64/72
f 48/66/73 50/69/73 49/67/73
f 43/59/74 44/62/74 50/69/74
f 54/71/75 56/75/75 55/72/75
f 58/74/76 59/83/76 56/75/76
f 57/76/77 59/79/77 58/77/77
f 57/76/78 61/81/78 62/78/78
f 60/80/79 62/78/79 61/81/79
f 55/72/80 56/75/80 62/78/80
f 39/60/42 43/59/42 60/80/42
f 43/59/43 48/66/43 55/72/43
f 48/66/44 41/68/44 51/73/44
f 41/68/81 49/67/81 65/85/81
f 49/87/82 45/63/82 66/88/82
f 45/63/83 40/12/83 64/14/83
f 39/60/84 72/109/84 74/26/84
f 42/58/85 74/26/85 73/90/85
f 46/61/86 73/90/86 71/91/86
f 53/82/87 61/81/87 77/92/87
f 61/81/88 57/76/88 78/93/88
f 57/76/89 52/6/89 76/5/89
f 51/73/90 68/111/90 70/94/90
f 54/71/91 70/94/91 69/95/91
f 58/77/92 69/112/92 67/4/92
f 17/96/12 18/113/12 15/10/12
f 18/113/12 19/114/12 15/10/12
f 19/114/12 20/115/12 15/10/12
f 15/10/12 21/38/12 51/73/12
f 21/38/12 22/116/12 24/117/12
f 22/116/12 23/118/12 24/117/12
f 21/38/12 24/117/12 26/111/12
f 17/96/12 15/10/12 63/86/12
f 21/38/12 26/111/12 51/73/12
f 24/117/12 25/119/12 26/111/12
f 26/111/12 68/111/6 51/73/6
f 63/86/12 15/10/12 41/68/12
f 15/10/12 51/73/12 41/68/12
o Plane
v 0.312000 -0.501000 0.480000
v 0.338281 -0.501000 0.477932
v 0.363915 -0.501000 0.471777
v 0.388270 -0.501000 0.461689
v 0.410748 -0.501000 0.447915
v 0.430794 -0.501000 0.430794
v 0.447915 -0.501000 0.410748
v 0.461689 -0.501000 0.388270
v 0.471777 -0.501000 0.363915
v 0.477932 -0.501000 0.338281
v -0.312000 -0.501000 0.480000
v -0.477932 -0.501000 0.338281
v -0.471777 -0.501000 0.363915
v -0.461689 -0.501000 0.388270
v -0.447915 -0.501000 0.410748
v -0.430794 -0.501000 0.430794
v -0.410748 -0.501000 0.447915
v -0.388270 -0.501000 0.461689
v -0.363915 -0.501000 0.471777
v -0.338281 -0.501000 0.477932
v 0.480000 -0.501000 -0.465600
v 0.465600 -0.501000 -0.480000
v 0.479823 -0.501000 -0.467853
v 0.479295 -0.501000 -0.470050
v 0.478431 -0.501000 -0.472137
v 0.477250 -0.501000 -0.474064
v 0.475782 -0.501000 -0.475782
v 0.474064 -0.501000 -0.477250
v 0.472138 -0.501000 -0.478431
v 0.470050 -0.501000 -0.479295
v 0.467853 -0.501000 -0.479823
v -0.480000 -0.501000 -0.465600
v -0.465600 -0.501000 -0.480000
v -0.479823 -0.501000 -0.467853
v -0.479295 -0.501000 -0.470050
v -0.478431 -0.501000 -0.472137
v -0.477250 -0.501000 -0.474064
v -0.475782 -0.501000 -0.475782
v -0.474064 -0.501000 -0.477250
v -0.472138 -0.501000 -0.478431
v -0.470050 -0.501000 -0.479295
v -0.467853 -0.501000 -0.479823
v 0.478870 -0.501000 0.326356
v 0.480000 -0.501000 0.297600
v 0.479047 -0.501000 0.323933
v 0.479219 -0.501000 0.321215
v 0.479383 -0.501000 0.318269
v 0.479534 -0.501000 0.315167
v 0.479669 -0.501000 0.311987
v 0.479784 -0.501000 0.308806
v 0.479877 -0.501000 0.305702
v 0.479945 -0.501000 0.302752
v 0.479986 -0.501000 0.300029
v -0.480000 -0.501000 0.297600
v -0.478870 -0.501000 0.326356
v -0.479986 -0.501000 0.300029
v -0.479945 -0.501000 0.302752
v -0.479877 -0.501000 0.305702
v -0.479784 -0.501000 0.308806
v -0.479669 -0.501000 0.311987
v -0.479534 -0.501000 0.315167
v -0.479383 -0.501000 0.318269
v -0.479219 -0.501000 0.321215
v -0.479047 -0.501000 0.323933
vn -0.0000 -1.0000 -0.0000
vn -0.0000 -1.0000 0.0001
vn -0.0000 -1.0000 -0.0001
vn -0.0000 -1.0000 0.0002
vt 0.010365 0.999266
vt 0.002865 0.993817
vt 0.000000 0.985000
vt 0.000000 0.190000
vt 0.015000 1.000000
vt 0.000014 0.187469
vt 0.175000 0.000000
vt 1.000000 0.190000
vt 0.825000 0.000000
vt 0.000058 0.184633
vt 0.000128 0.181560
vt 0.000225 0.178327
vt 0.000345 0.175014
vt 0.000485 0.171701
vt 0.000643 0.168470
vt 0.000813 0.165401
vt 0.000993 0.162570
vt 0.147624 0.002155
vt 0.001177 0.160046
vt 0.051256 0.051256
vt 0.002155 0.147624
vt 0.008565 0.120922
vt 0.019074 0.095552
vt 0.033422 0.072138
vt 0.072138 0.033422
vt 0.095552 0.019074
vt 0.120922 0.008565
vt 0.852376 0.002155
vt 0.998823 0.160046
vt 0.879078 0.008565
vt 0.904448 0.019074
vt 0.927862 0.033422
vt 0.948744 0.051256
vt 0.966578 0.072138
vt 0.980926 0.095552
vt 0.991435 0.120922
vt 0.997845 0.147624
vt 0.999007 0.162570
vt 0.999187 0.165401
vt 0.999357 0.168470
vt 0.999515 0.171701
vt 0.999655 0.175014
vt 0.999775 0.178327
vt 0.999872 0.181560
vt 0.999942 0.184633
vt 0.999986 0.187469
vt 1.000000 0.985000
vt 0.985000 1.000000
vt 0.999815 0.987347
vt 0.995607 0.995607
vt 0.999266 0.989635
vt 0.998365 0.991810
vt 0.997135 0.993817
vt 0.993817 0.997135
vt 0.987347 0.999815
vt 0.991810 0.998365
vt 0.989635 0.999266
vt 0.012653 0.999815
vt 0.008190 0.998365
vt 0.006183 0.997135
vt 0.004393 0.995607
vt 0.001635 0.991810
vt 0.000734 0.989635
vt 0.000185 0.987347
s 0
f 108/120/93 104/121/93 99/122/93
f 99/122/93 122/123/93 100/124/93
f 122/123/93 131/125/93 79/126/93
f 132/127/93 122/123/93 89/128/93
f 131/125/93 130/129/93 79/126/93
f 130/129/93 129/130/93 79/126/93
f 129/130/93 128/131/93 79/126/93
f 128/131/94 127/132/94 79/126/94
f 127/132/95 126/133/95 79/126/95
f 126/133/93 125/134/93 79/126/93
f 125/134/93 124/135/93 79/126/93
f 124/135/93 123/136/93 79/126/93
f 79/126/93 123/136/93 80/137/93
f 123/136/93 121/138/93 84/139/93
f 121/138/93 88/140/93 87/141/93
f 87/141/93 86/142/93 121/138/93
f 121/138/93 86/142/93 85/143/93
f 85/143/93 84/139/93 121/138/93
f 84/139/93 83/144/93 123/136/93
f 83/144/93 82/145/93 123/136/93
f 82/145/93 81/146/93 123/136/93
f 81/146/93 80/137/93 123/136/93
f 79/126/93 89/128/93 122/123/93
f 89/128/93 98/147/93 133/148/93
f 98/147/93 97/149/93 133/148/93
f 97/149/93 96/150/93 133/148/93
f 96/150/93 95/151/93 133/148/93
f 95/151/93 94/152/93 133/148/93
f 94/152/93 93/153/93 133/148/93
f 93/153/93 92/154/93 133/148/93
f 92/154/93 91/155/93 133/148/93
f 91/155/93 90/156/93 133/148/93
f 133/148/96 142/157/96 89/128/96
f 142/157/93 141/158/93 89/128/93
f 141/158/93 140/159/93 89/128/93
f 140/159/93 139/160/93 89/128/93
f 139/160/95 138/161/95 89/128/95
f 138/161/94 137/162/94 89/128/94
f 137/162/93 136/163/93 89/128/93
f 136/163/93 135/164/93 89/128/93
f 135/164/93 134/165/93 89/128/93
f 134/165/93 132/127/93 89/128/93
f 132/127/93 110/166/93 111/167/93
f 110/166/93 112/168/93 116/169/93
f 112/168/93 113/170/93 114/171/93
f 114/171/96 115/172/96 112/168/96
f 115/172/93 116/169/93 112/168/93
f 116/169/93 117/173/93 120/174/93
f 117/173/93 118/175/93 120/174/93
f 118/175/93 119/176/93 120/174/93
f 120/174/94 111/167/94 110/166/94
f 111/167/93 100/124/93 132/127/93
f 100/124/93 109/177/93 108/120/93
f 108/120/94 107/178/94 106/179/94
f 106/179/93 105/180/93 108/120/93
f 105/180/93 104/121/93 108/120/93
f 104/121/96 103/181/96 102/182/96
f 102/182/96 101/183/96 104/121/96
f 101/183/93 99/122/93 104/121/93
f 122/123/93 132/127/93 100/124/93
f 100/124/93 108/120/93 99/122/93
f 110/166/93 116/169/93 120/174/93
o Plane2
v 0.312000 0.480000 -0.501000
v 0.338281 0.477932 -0.501000
v 0.363915 0.471777 -0.501000
v 0.388270 0.461689 -0.501000
v 0.410748 0.447915 -0.501000
v 0.430794 0.430794 -0.501000
v 0.447915 0.410748 -0.501000
v 0.461689 0.388270 -0.501000
v 0.471778 0.363915 -0.501000
v 0.477932 0.338281 -0.501000
v -0.312000 0.480000 -0.501000
v -0.477932 0.338281 -0.501000
v -0.471777 0.363915 -0.501000
v -0.461689 0.388270 -0.501000
v -0.447915 0.410748 -0.501000
v -0.430794 0.430794 -0.501000
v -0.410748 0.447915 -0.501000
v -0.388270 0.461689 -0.501000
v -0.363915 0.471778 -0.501000
v -0.338281 0.477932 -0.501000
v 0.480000 -0.465600 -0.501000
v 0.465600 -0.480000 -0.501000
v 0.479823 -0.467853 -0.501000
v 0.479295 -0.470050 -0.501000
v 0.478430 -0.472138 -0.501000
v 0.477250 -0.474064 -0.501000
v 0.475782 -0.475782 -0.501000
v 0.474064 -0.477250 -0.501000
v 0.472137 -0.478431 -0.501000
v 0.470050 -0.479295 -0.501000
v 0.467853 -0.479823 -0.501000
v -0.480000 -0.465600 -0.501000
v -0.465600 -0.480000 -0.501000
v -0.479823 -0.467853 -0.501000
v -0.479295 -0.470050 -0.501000
v -0.478431 -0.472137 -0.501000
v -0.477250 -0.474064 -0.501000
v -0.475782 -0.475782 -0.501000
v -0.474064 -0.477250 -0.501000
v -0.472138 -0.478431 -0.501000
v -0.470050 -0.479295 -0.501000
v -0.467853 -0.479823 -0.501000
v 0.478870 0.326356 -0.501000
v 0.480000 0.297600 -0.501000
v 0.479047 0.323933 -0.501000
v 0.479219 0.321215 -0.501000
v 0.479383 0.318269 -0.501000
v 0.479534 0.315167 -0.501000
v 0.479669 0.311987 -0.501000
v 0.479784 0.308806 -0.501000
v 0.479877 0.305702 -0.501000
v 0.479945 0.302752 -0.501000
v 0.479986 0.300029 -0.501000
v -0.480000 0.297600 -0.501000
v -0.478870 0.326356 -0.501000
v -0.479986 0.300029 -0.501000
v -0.479945 0.302752 -0.501000
v -0.479877 0.305702 -0.501000
v -0.479784 0.308806 -0.501000
v -0.479669 0.311987 -0.501000
v -0.479534 0.315167 -0.501000
v -0.479383 0.318269 -0.501000
v -0.479219 0.321215 -0.501000
v -0.479047 0.323933 -0.501000
vn -0.0000 -0.0000 1.0000
vn -0.0001 -0.0000 1.0000
vn -0.0002 -0.0000 1.0000
vn 0.0002 -0.0000 1.0000
vn 0.0001 -0.0000 1.0000
vt 0.010365 0.999266
vt 0.002865 0.993817
vt 0.000000 0.985000
vt 0.000000 0.190000
vt 0.015000 1.000000
vt 0.000014 0.187469
vt 0.175000 0.000000
vt 1.000000 0.190000
vt 0.825000 0.000000
vt 0.000058 0.184633
vt 0.000128 0.181560
vt 0.000225 0.178327
vt 0.000345 0.175014
vt 0.000485 0.171701
vt 0.000643 0.168470
vt 0.000813 0.165401
vt 0.000993 0.162570
vt 0.147624 0.002155
vt 0.001177 0.160046
vt 0.051256 0.051256
vt 0.002155 0.147624
vt 0.008565 0.120922
vt 0.019074 0.095552
vt 0.033422 0.072138
vt 0.072138 0.033422
vt 0.095552 0.019074
vt 0.120922 0.008565
vt 0.852376 0.002155
vt 0.998823 0.160046
vt 0.879078 0.008565
vt 0.904448 0.019074
vt 0.927862 0.033422
vt 0.948744 0.051256
vt 0.966578 0.072138
vt 0.980926 0.095552
vt 0.991435 0.120922
vt 0.997845 0.147624
vt 0.999007 0.162570
vt 0.999187 0.165401
vt 0.999357 0.168470
vt 0.999515 0.171701
vt 0.999655 0.175014
vt 0.999775 0.178327
vt 0.999872 0.181560
vt 0.999942 0.184633
vt 0.999986 0.187469
vt 1.000000 0.985000
vt 0.985000 1.000000
vt 0.999815 0.987347
vt 0.995607 0.995607
vt 0.999266 0.989635
vt 0.998365 0.991810
vt 0.997135 0.993817
vt 0.993817 0.997135
vt 0.987347 0.999815
vt 0.991810 0.998365
vt 0.989635 0.999266
vt 0.012653 0.999815
vt 0.008190 0.998365
vt 0.006183 0.997135
vt 0.004393 0.995607
vt 0.001635 0.991810
vt 0.000734 0.989635
vt 0.000185 0.987347
s 0
f 172/184/97 168/185/97 163/186/97
f 163/186/97 186/187/97 164/188/97
f 186/187/97 195/189/97 143/190/97
f 196/191/97 186/187/97 153/192/97
f 195/189/97 194/193/97 143/190/97
f 194/193/97 193/194/97 143/190/97
f 193/194/97 192/195/97 143/190/97
f 192/195/97 191/196/97 143/190/97
f 191/196/98 190/197/98 143/190/98
f 190/197/97 189/198/97 143/190/97
f 189/198/97 188/199/97 143/190/97
f 188/199/97 187/200/97 143/190/97
f 143/190/97 187/200/97 144/201/97
f 187/200/97 185/202/97 148/203/97
f 185/202/99 152/204/99 151/205/99
f 151/205/97 150/206/97 185/202/97
f 185/202/97 150/206/97 149/207/97
f 149/207/97 148/203/97 185/202/97
f 148/203/97 147/208/97 187/200/97
f 147/208/97 146/209/97 187/200/97
f 146/209/97 145/210/97 187/200/97
f 145/210/97 144/201/97 187/200/97
f 143/190/97 153/192/97 186/187/97
f 153/192/97 162/211/97 197/212/97
f 162/211/97 161/213/97 197/212/97
f 161/213/97 160/214/97 197/212/97
f 160/214/97 159/215/97 197/212/97
f 159/215/97 158/216/97 197/212/97
f 158/216/97 157/217/97 197/212/97
f 157/217/97 156/218/97 197/212/97
f 156/218/97 155/219/97 197/212/97
f 155/219/100 154/220/100 197/212/100
f 197/212/97 206/221/97 153/192/97
f 206/221/97 205/222/97 153/192/97
f 205/222/97 204/223/97 153/192/97
f 204/223/97 203/224/97 153/192/97
f 203/224/97 202/225/97 153/192/97
f 202/225/97 201/226/97 153/192/97
f 201/226/97 200/227/97 153/192/97
f 200/227/97 199/228/97 153/192/97
f 199/228/97 198/229/97 153/192/97
f 198/229/97 196/191/97 153/192/97
f 196/191/97 174/230/97 175/231/97
f 174/230/97 176/232/97 180/233/97
f 176/232/97 177/234/97 178/235/97
f 178/235/97 179/236/97 176/232/97
f 179/236/97 180/233/97 176/232/97
f 180/233/98 181/237/98 184/238/98
f 181/237/100 182/239/100 184/238/100
f 182/239/101 183/240/101 184/238/101
f 184/238/97 175/231/97 174/230/97
f 175/231/97 164/188/97 196/191/97
f 164/188/101 173/241/101 172/184/101
f 172/184/97 171/242/97 170/243/97
f 170/243/97 169/244/97 172/184/97
f 169/244/97 168/185/97 172/184/97
f 168/185/101 167/245/101 166/246/101
f 166/246/97 165/247/97 168/185/97
f 165/247/101 163/186/101 168/185/101
f 186/187/97 196/191/97 164/188/97
f 164/188/101 172/184/101 163/186/101
f 174/230/97 180/233/97 184/238/97
